<svg xmlns="http://www.w3.org/2000/svg" xmlns:xlink="http://www.w3.org/1999/xlink" version="1.1" width="512" height="512" x="0" y="0" viewBox="0 0 461 461.6" style="enable-background:new 0 0 512 512" xml:space="preserve"><g><path d="M168.3 93.602h16v16h-16zM168.3 157.602h16v16h-16zM168.3 221.602h16v16h-16zM88.3 285.602h16v16h-16zM360.3 173.602h16v16h-16zM88.3 221.602h16v16h-16zM88.3 93.602h16v16h-16zM168.3 285.602h16v16h-16zM88.3 157.602h16v16h-16zM296.3 237.602h16v16h-16zM360.3 237.602h16v16h-16zM360.3 301.602h16v16h-16zM296.3 173.602h16v16h-16zM296.3 301.602h16v16h-16zM80.3 365.602h48v64h-48zM144.3 365.602h48v64h-48zM312.3 381.602h48v48h-48zm0 0" fill="#c9ced6" opacity="1" data-original="#000000"/><path d="M408.3 445.602V147.848l-144-36v333.754h-16V59.742L24.3 0v445.602H.3v16h432v-16zm-256-360a8 8 0 0 1 8-8h32a8 8 0 0 1 8 8v32a8 8 0 0 1-8 8h-32a8 8 0 0 1-8-8zm0 64a8 8 0 0 1 8-8h32a8 8 0 0 1 8 8v32a8 8 0 0 1-8 8h-32a8 8 0 0 1-8-8zm0 64a8 8 0 0 1 8-8h32a8 8 0 0 1 8 8v32a8 8 0 0 1-8 8h-32a8 8 0 0 1-8-8zm0 64a8 8 0 0 1 8-8h32a8 8 0 0 1 8 8v32a8 8 0 0 1-8 8h-32a8 8 0 0 1-8-8zm-80-192a8 8 0 0 1 8-8h32a8 8 0 0 1 8 8v32a8 8 0 0 1-8 8h-32a8 8 0 0 1-8-8zm0 64a8 8 0 0 1 8-8h32a8 8 0 0 1 8 8v32a8 8 0 0 1-8 8h-32a8 8 0 0 1-8-8zm0 64a8 8 0 0 1 8-8h32a8 8 0 0 1 8 8v32a8 8 0 0 1-8 8h-32a8 8 0 0 1-8-8zm0 64a8 8 0 0 1 8-8h32a8 8 0 0 1 8 8v32a8 8 0 0 1-8 8h-32a8 8 0 0 1-8-8zm136 152v16h-144v-88a8 8 0 0 1 8-8h128a8 8 0 0 1 8 8zm72-264a8 8 0 0 1 8-8h32a8 8 0 0 1 8 8v32a8 8 0 0 1-8 8h-32a8 8 0 0 1-8-8zm0 64a8 8 0 0 1 8-8h32a8 8 0 0 1 8 8v32a8 8 0 0 1-8 8h-32a8 8 0 0 1-8-8zm0 96v-32a8 8 0 0 1 8-8h32a8 8 0 0 1 8 8v32a8 8 0 0 1-8 8h-32a8 8 0 0 1-8-8zm96 120h-80v-72a8 8 0 0 1 8-8h64a8 8 0 0 1 8 8zm16-120a8 8 0 0 1-8 8h-32a8 8 0 0 1-8-8v-32a8 8 0 0 1 8-8h32a8 8 0 0 1 8 8zm0-64a8 8 0 0 1-8 8h-32a8 8 0 0 1-8-8v-32a8 8 0 0 1 8-8h32a8 8 0 0 1 8 8zm0-64a8 8 0 0 1-8 8h-32a8 8 0 0 1-8-8v-32a8 8 0 0 1 8-8h32a8 8 0 0 1 8 8zm0 0" fill="#c9ced6" opacity="1" data-original="#000000"/></g></svg>