<svg
            xmlns="http://www.w3.org/2000/svg"
            version="1.1"
            width="30"
            height="30"
            viewBox="0 0 512 512"
          >
            <g>
              <path
                d="M74.115 70.883a8.008 8.008 0 0 1 8.008-8.008h137.424c4.423 0 8.008 3.585 8.008 8.008s-3.585 8.008-8.008 8.008H82.123a8.008 8.008 0 0 1-8.008-8.008zm8.008 56.339h185.159c4.423 0 8.008-3.585 8.008-8.008s-3.585-8.008-8.008-8.008H82.123c-4.423 0-8.008 3.585-8.008 8.008s3.585 8.008 8.008 8.008zm0 48.33h187.37c4.423 0 8.008-3.585 8.008-8.008s-3.585-8.008-8.008-8.008H82.123c-4.423 0-8.008 3.585-8.008 8.008s3.585 8.008 8.008 8.008zm137.424 32.316H82.123c-4.423 0-8.008 3.585-8.008 8.008s3.585 8.008 8.008 8.008h137.424a8.008 8.008 0 0 0 0-16.016zM425.05 312.015a8.01 8.01 0 0 0-11.257 1.239l-64.752 80.766-33.792-44.594a8.01 8.01 0 0 0-12.765 9.674l39.997 52.781a8.004 8.004 0 0 0 6.383 3.171 8.01 8.01 0 0 0 6.248-2.999l71.178-88.781a8.01 8.01 0 0 0-1.24-11.257zm56.999-45.343v116.476c0 19.088-11.326 43.458-31.074 66.86-21.541 25.526-51.132 47.305-83.324 61.322a8.006 8.006 0 0 1-6.394 0c-32.192-14.018-61.784-35.796-83.324-61.322-4.231-5.014-8.073-10.073-11.502-15.114H65.455c-19.577 0-35.504-15.927-35.504-35.504V35.507C29.951 15.93 45.878.003 65.455.003h243.411c2.123 0 4.16.843 5.661 2.345l70.555 70.524a8.011 8.011 0 0 1 2.346 5.664v143.608l45.26 18.762 44.413 18.365a8.01 8.01 0 0 1 4.948 7.401zM316.874 51.013c0 10.761 8.755 19.516 19.517 19.516h23.691l-43.208-43.19zm-59.973 367.865c-6.525-12.829-10.043-25.099-10.043-35.73V266.672a8.008 8.008 0 0 1 4.948-7.4l44.419-18.368 65.162-27.012a8.007 8.007 0 0 1 6.133 0l3.893 1.614V86.544h-35.022c-19.593 0-35.532-15.939-35.532-35.531V16.019H65.455c-10.746 0-19.488 8.742-19.488 19.488V399.39c0 10.746 8.742 19.488 19.488 19.488zm209.132-146.851-39.471-16.322-50.148-20.788c-.063-.026-.127-.051-.19-.079l-11.77-4.879-62.102 25.743-39.478 16.325v111.121c0 27.299 36.136 82.334 101.58 112.076 65.443-29.742 101.58-84.777 101.58-112.076V272.027z"
                fill="#181e29"
              />
            </g>
          </svg>