<svg width="311" height="300" viewBox="0 0 311 300" fill="none" xmlns="http://www.w3.org/2000/svg">
<rect x="10" y="10" width="290.274" height="280" rx="140" fill="#10002A" stroke="#6E00FF" stroke-width="20"/>
<path d="M82 113.79V185.502C82 186.33 82.7009 186.982 83.5273 186.929C100.548 185.839 118.753 179.863 131.608 168.07V153.937H112.879C110.569 153.937 108.582 152.16 108.475 149.852C108.362 147.39 110.324 145.361 112.759 145.361H131.608V131.225C118.825 119.494 100.62 113.448 83.527 112.362C82.7006 112.31 82 112.962 82 113.79ZM178.392 131.228V145.361H197.119C199.427 145.361 201.414 147.133 201.524 149.439C201.642 151.901 199.678 153.937 197.242 153.937H178.392V168.072C191.175 179.804 209.381 185.849 226.473 186.935C227.299 186.988 228 186.336 228 185.508V113.796C228 112.968 227.299 112.316 226.473 112.369C209.408 113.461 191.225 119.45 178.392 131.228ZM140.184 133.1V166.197H169.816V133.1H140.184Z" fill="white"/>
</svg>
