<svg width="1126" height="265" viewBox="0 0 1126 265" fill="none" xmlns="http://www.w3.org/2000/svg">
<g clip-path="url(#clip0_0_1)">
<g filter="url(#filter0_d_0_1)">
<path d="M229 132.5C229 79.2045 185.795 36 132.5 36C79.2045 36 36 79.2045 36 132.5C36 185.795 79.2045 229 132.5 229C185.795 229 229 185.795 229 132.5Z" fill="#10002A"/>
<path d="M224.5 132.5C224.5 81.6898 183.31 40.5 132.5 40.5C81.6898 40.5 40.5 81.6898 40.5 132.5C40.5 183.31 81.6898 224.5 132.5 224.5C183.31 224.5 224.5 183.31 224.5 132.5Z" stroke="#6E00FF" stroke-width="9"/>
</g>
<path d="M84 107.976V156.902C84 157.467 84.4705 157.912 85.0252 157.876C96.4498 157.132 108.67 153.055 117.299 145.009V135.367H104.727C103.176 135.367 101.843 134.154 101.771 132.58C101.695 130.9 103.012 129.516 104.646 129.516H117.299V119.871C108.718 111.868 96.4983 107.743 85.025 107.002C84.4703 106.966 84 107.411 84 107.976ZM148.701 119.873V129.516H161.272C162.821 129.516 164.155 130.725 164.229 132.298C164.308 133.978 162.989 135.367 161.354 135.367H148.701V145.011C157.282 153.014 169.502 157.139 180.975 157.88C181.53 157.916 182 157.471 182 156.906V107.98C182 107.415 181.53 106.971 180.975 107.006C169.521 107.751 157.315 111.837 148.701 119.873ZM123.055 121.151V143.731H142.945V121.151H123.055Z" fill="white"/>
<path d="M132.5 219C180.273 219 219 180.273 219 132.5C219 84.7274 180.273 46 132.5 46C84.7274 46 46 84.7274 46 132.5C46 180.273 84.7274 219 132.5 219Z" stroke="white" stroke-opacity="0.73" stroke-width="2"/>
<path d="M325.02 173.1C319.667 173.1 314.753 172.147 310.28 170.24C305.807 168.333 301.92 165.62 298.62 162.1C295.32 158.507 292.753 154.29 290.92 149.45C289.16 144.61 288.28 139.293 288.28 133.5C288.28 128 289.233 122.903 291.14 118.21C293.12 113.443 295.833 109.263 299.28 105.67C302.727 102.077 306.723 99.29 311.27 97.31C315.817 95.33 320.73 94.34 326.01 94.34C329.75 94.34 333.38 94.9267 336.9 96.1C340.493 97.2 343.72 98.7767 346.58 100.83C349.513 102.81 351.897 105.083 353.73 107.65L345.81 115.9C343.683 113.773 341.52 112.013 339.32 110.62C337.193 109.153 334.993 108.053 332.72 107.32C330.52 106.587 328.283 106.22 326.01 106.22C322.417 106.22 319.043 106.917 315.89 108.31C312.81 109.63 310.097 111.5 307.75 113.92C305.477 116.34 303.68 119.237 302.36 122.61C301.04 125.91 300.38 129.54 300.38 133.5C300.38 137.68 301.003 141.493 302.25 144.94C303.57 148.313 305.403 151.21 307.75 153.63C310.097 156.05 312.883 157.92 316.11 159.24C319.41 160.487 323.04 161.11 327 161.11C329.42 161.11 331.803 160.78 334.15 160.12C336.497 159.46 338.697 158.507 340.75 157.26C342.803 156.013 344.673 154.547 346.36 152.86L352.3 162.54C350.613 164.52 348.303 166.317 345.37 167.93C342.51 169.543 339.283 170.827 335.69 171.78C332.17 172.66 328.613 173.1 325.02 173.1ZM391.538 173.1C385.892 173.1 380.832 171.817 376.358 169.25C371.958 166.61 368.475 163.053 365.908 158.58C363.342 154.033 362.058 148.863 362.058 143.07C362.058 137.277 363.342 132.143 365.908 127.67C368.475 123.123 371.958 119.567 376.358 117C380.832 114.36 385.892 113.04 391.538 113.04C397.112 113.04 402.098 114.36 406.498 117C410.972 119.567 414.492 123.123 417.058 127.67C419.625 132.143 420.908 137.277 420.908 143.07C420.908 148.863 419.625 154.033 417.058 158.58C414.492 163.053 410.972 166.61 406.498 169.25C402.098 171.817 397.112 173.1 391.538 173.1ZM391.538 162.76C394.985 162.76 398.065 161.917 400.778 160.23C403.492 158.47 405.618 156.123 407.158 153.19C408.698 150.183 409.432 146.81 409.358 143.07C409.432 139.257 408.698 135.883 407.158 132.95C405.618 129.943 403.492 127.597 400.778 125.91C398.065 124.223 394.985 123.38 391.538 123.38C388.092 123.38 384.975 124.26 382.188 126.02C379.475 127.707 377.348 130.053 375.808 133.06C374.268 135.993 373.535 139.33 373.608 143.07C373.535 146.81 374.268 150.183 375.808 153.19C377.348 156.123 379.475 158.47 382.188 160.23C384.975 161.917 388.092 162.76 391.538 162.76ZM433.254 172V114.25H444.584V126.13L442.604 127.45C443.337 124.883 444.767 122.537 446.894 120.41C449.021 118.21 451.551 116.45 454.484 115.13C457.417 113.737 460.424 113.04 463.504 113.04C467.904 113.04 471.571 113.92 474.504 115.68C477.437 117.367 479.637 119.97 481.104 123.49C482.571 127.01 483.304 131.447 483.304 136.8V172H471.974V137.57C471.974 134.27 471.534 131.557 470.654 129.43C469.774 127.23 468.417 125.653 466.584 124.7C464.751 123.673 462.477 123.233 459.764 123.38C457.564 123.38 455.547 123.747 453.714 124.48C451.881 125.14 450.267 126.093 448.874 127.34C447.554 128.587 446.491 130.053 445.684 131.74C444.951 133.353 444.584 135.113 444.584 137.02V172H438.974C438.021 172 437.067 172 436.114 172C435.161 172 434.207 172 433.254 172ZM504.944 172V107.76C504.944 104.46 505.677 101.527 507.144 98.96C508.611 96.3933 510.627 94.3767 513.194 92.91C515.761 91.4433 518.731 90.71 522.104 90.71C524.451 90.71 526.651 91.15 528.704 92.03C530.757 92.91 532.407 94.0833 533.654 95.55L529.804 104.24C528.851 103.36 527.787 102.663 526.614 102.15C525.514 101.563 524.451 101.27 523.424 101.27C521.884 101.27 520.564 101.527 519.464 102.04C518.437 102.48 517.667 103.213 517.154 104.24C516.641 105.193 516.384 106.367 516.384 107.76V172H510.664C509.711 172 508.757 172 507.804 172C506.851 172 505.897 172 504.944 172ZM495.704 125.69V115.24H530.024V125.69H495.704ZM543.774 172V114.25H555.104V172H543.774ZM549.274 101.49C546.854 101.49 544.984 100.867 543.664 99.62C542.344 98.3733 541.684 96.6133 541.684 94.34C541.684 92.2133 542.344 90.49 543.664 89.17C545.057 87.85 546.927 87.19 549.274 87.19C551.694 87.19 553.564 87.8133 554.884 89.06C556.204 90.3067 556.864 92.0667 556.864 94.34C556.864 96.4667 556.167 98.19 554.774 99.51C553.454 100.83 551.621 101.49 549.274 101.49ZM596.563 173.1C591.283 173.1 586.553 171.817 582.373 169.25C578.266 166.61 575.003 163.053 572.583 158.58C570.163 154.033 568.953 148.863 568.953 143.07C568.953 137.277 570.126 132.143 572.473 127.67C574.893 123.123 578.156 119.567 582.263 117C586.369 114.36 591.026 113.04 596.233 113.04C599.093 113.04 601.843 113.517 604.483 114.47C607.196 115.35 609.616 116.597 611.743 118.21C613.869 119.75 615.519 121.473 616.693 123.38C617.939 125.213 618.563 127.083 618.563 128.99L615.263 129.21V90.6H626.593V172H615.263V158.25H617.463C617.463 160.01 616.876 161.77 615.703 163.53C614.529 165.217 612.953 166.793 610.973 168.26C609.066 169.727 606.829 170.9 604.263 171.78C601.769 172.66 599.203 173.1 596.563 173.1ZM598.103 163.31C601.549 163.31 604.593 162.43 607.233 160.67C609.873 158.91 611.926 156.527 613.393 153.52C614.933 150.44 615.703 146.957 615.703 143.07C615.703 139.183 614.933 135.737 613.393 132.73C611.926 129.65 609.873 127.23 607.233 125.47C604.593 123.71 601.549 122.83 598.103 122.83C594.656 122.83 591.613 123.71 588.973 125.47C586.333 127.23 584.243 129.65 582.703 132.73C581.236 135.737 580.503 139.183 580.503 143.07C580.503 146.957 581.236 150.44 582.703 153.52C584.243 156.527 586.333 158.91 588.973 160.67C591.613 162.43 594.656 163.31 598.103 163.31ZM669.14 173.1C663.2 173.1 657.92 171.853 653.3 169.36C648.753 166.793 645.16 163.31 642.52 158.91C639.953 154.51 638.67 149.45 638.67 143.73C638.67 139.183 639.403 135.04 640.87 131.3C642.336 127.56 644.353 124.333 646.92 121.62C649.56 118.833 652.676 116.707 656.27 115.24C659.936 113.7 663.896 112.93 668.15 112.93C671.89 112.93 675.373 113.663 678.6 115.13C681.826 116.523 684.613 118.467 686.96 120.96C689.38 123.453 691.213 126.423 692.46 129.87C693.78 133.243 694.403 136.947 694.33 140.98L694.22 145.82H647.03L644.5 136.8H684.43L682.78 138.67V136.03C682.56 133.61 681.753 131.447 680.36 129.54C678.966 127.633 677.206 126.13 675.08 125.03C672.953 123.93 670.643 123.38 668.15 123.38C664.19 123.38 660.853 124.15 658.14 125.69C655.426 127.157 653.373 129.357 651.98 132.29C650.586 135.15 649.89 138.707 649.89 142.96C649.89 146.993 650.733 150.513 652.42 153.52C654.106 156.453 656.49 158.727 659.57 160.34C662.65 161.953 666.206 162.76 670.24 162.76C673.1 162.76 675.74 162.283 678.16 161.33C680.653 160.377 683.33 158.653 686.19 156.16L691.91 164.19C690.15 165.95 687.986 167.49 685.42 168.81C682.926 170.13 680.25 171.193 677.39 172C674.603 172.733 671.853 173.1 669.14 173.1ZM706.643 172V114.25H717.973V126.13L715.993 127.45C716.726 124.883 718.156 122.537 720.283 120.41C722.409 118.21 724.939 116.45 727.873 115.13C730.806 113.737 733.813 113.04 736.893 113.04C741.293 113.04 744.959 113.92 747.893 115.68C750.826 117.367 753.026 119.97 754.493 123.49C755.959 127.01 756.693 131.447 756.693 136.8V172H745.363V137.57C745.363 134.27 744.923 131.557 744.043 129.43C743.163 127.23 741.806 125.653 739.973 124.7C738.139 123.673 735.866 123.233 733.153 123.38C730.953 123.38 728.936 123.747 727.103 124.48C725.269 125.14 723.656 126.093 722.263 127.34C720.943 128.587 719.879 130.053 719.073 131.74C718.339 133.353 717.973 135.113 717.973 137.02V172H712.363C711.409 172 710.456 172 709.503 172C708.549 172 707.596 172 706.643 172ZM779.213 172V99.51H790.543V172H779.213ZM767.223 125.25V114.25H803.963V125.25H767.223ZM839.939 172L869.749 95H881.849L911.439 172H898.789L881.189 125.58C880.969 125.067 880.529 123.82 879.869 121.84C879.283 119.86 878.586 117.66 877.779 115.24C876.973 112.82 876.239 110.62 875.579 108.64C874.919 106.587 874.479 105.267 874.259 104.68L876.789 104.57C876.349 105.817 875.799 107.393 875.139 109.3C874.553 111.207 873.893 113.223 873.159 115.35C872.499 117.477 871.839 119.493 871.179 121.4C870.519 123.233 869.969 124.773 869.529 126.02L852.039 172H839.939ZM853.139 152.86L857.539 141.42H892.519L897.579 152.86H853.139ZM922.131 172V161H934.561V106H922.131V95H958.871V106H946.441V161H958.871V172H922.131Z" fill="black"/>
</g>
<path d="M1013.9 174V139H1027.6C1030.1 139 1032.35 139.417 1034.35 140.25C1036.38 141.083 1038.12 142.283 1039.55 143.85C1040.98 145.417 1042.08 147.267 1042.85 149.4C1043.62 151.533 1044 153.9 1044 156.5C1044 159.1 1043.62 161.483 1042.85 163.65C1042.08 165.783 1040.98 167.633 1039.55 169.2C1038.15 170.733 1036.43 171.917 1034.4 172.75C1032.37 173.583 1030.1 174 1027.6 174H1013.9ZM1019.3 169.35L1019.15 168.8H1027.35C1029.12 168.8 1030.68 168.517 1032.05 167.95C1033.45 167.383 1034.62 166.583 1035.55 165.55C1036.52 164.483 1037.25 163.183 1037.75 161.65C1038.25 160.117 1038.5 158.4 1038.5 156.5C1038.5 154.6 1038.25 152.9 1037.75 151.4C1037.25 149.867 1036.52 148.567 1035.55 147.5C1034.58 146.433 1033.42 145.617 1032.05 145.05C1030.68 144.483 1029.12 144.2 1027.35 144.2H1019L1019.3 143.75V169.35ZM1061.8 174.5C1059.24 174.5 1056.94 173.917 1054.9 172.75C1052.9 171.55 1051.32 169.933 1050.15 167.9C1048.99 165.833 1048.4 163.483 1048.4 160.85C1048.4 158.217 1048.99 155.883 1050.15 153.85C1051.32 151.783 1052.9 150.167 1054.9 149C1056.94 147.8 1059.24 147.2 1061.8 147.2C1064.34 147.2 1066.6 147.8 1068.6 149C1070.64 150.167 1072.24 151.783 1073.4 153.85C1074.57 155.883 1075.15 158.217 1075.15 160.85C1075.15 163.483 1074.57 165.833 1073.4 167.9C1072.24 169.933 1070.64 171.55 1068.6 172.75C1066.6 173.917 1064.34 174.5 1061.8 174.5ZM1061.8 169.8C1063.37 169.8 1064.77 169.417 1066 168.65C1067.24 167.85 1068.2 166.783 1068.9 165.45C1069.6 164.083 1069.94 162.55 1069.9 160.85C1069.94 159.117 1069.6 157.583 1068.9 156.25C1068.2 154.883 1067.24 153.817 1066 153.05C1064.77 152.283 1063.37 151.9 1061.8 151.9C1060.24 151.9 1058.82 152.3 1057.55 153.1C1056.32 153.867 1055.35 154.933 1054.65 156.3C1053.95 157.633 1053.62 159.15 1053.65 160.85C1053.62 162.55 1053.95 164.083 1054.65 165.45C1055.35 166.783 1056.32 167.85 1057.55 168.65C1058.82 169.417 1060.24 169.8 1061.8 169.8ZM1091.91 174.5C1089.48 174.5 1087.3 173.9 1085.36 172.7C1083.46 171.5 1081.95 169.867 1080.81 167.8C1079.71 165.733 1079.16 163.417 1079.16 160.85C1079.16 158.283 1079.71 155.967 1080.81 153.9C1081.95 151.833 1083.46 150.2 1085.36 149C1087.3 147.8 1089.48 147.2 1091.91 147.2C1094.25 147.2 1096.36 147.683 1098.26 148.65C1100.2 149.583 1101.66 150.867 1102.66 152.5L1099.81 156C1099.28 155.233 1098.6 154.533 1097.76 153.9C1096.93 153.267 1096.05 152.767 1095.11 152.4C1094.18 152.033 1093.28 151.85 1092.41 151.85C1090.81 151.85 1089.38 152.25 1088.11 153.05C1086.88 153.817 1085.9 154.883 1085.16 156.25C1084.43 157.617 1084.06 159.15 1084.06 160.85C1084.06 162.55 1084.45 164.083 1085.21 165.45C1085.98 166.783 1087 167.85 1088.26 168.65C1089.53 169.45 1090.93 169.85 1092.46 169.85C1093.36 169.85 1094.23 169.7 1095.06 169.4C1095.93 169.1 1096.76 168.65 1097.56 168.05C1098.36 167.45 1099.11 166.717 1099.81 165.85L1102.66 169.35C1101.6 170.85 1100.06 172.083 1098.06 173.05C1096.1 174.017 1094.05 174.5 1091.91 174.5ZM1116.27 174.5C1114.07 174.5 1112.09 174.117 1110.32 173.35C1108.56 172.583 1107.09 171.45 1105.92 169.95L1109.42 166.95C1110.42 168.117 1111.51 168.967 1112.67 169.5C1113.87 170 1115.22 170.25 1116.72 170.25C1117.32 170.25 1117.87 170.183 1118.37 170.05C1118.91 169.883 1119.36 169.65 1119.72 169.35C1120.12 169.05 1120.42 168.7 1120.62 168.3C1120.82 167.867 1120.92 167.4 1120.92 166.9C1120.92 166.033 1120.61 165.333 1119.97 164.8C1119.64 164.567 1119.11 164.317 1118.37 164.05C1117.67 163.75 1116.76 163.45 1115.62 163.15C1113.69 162.65 1112.11 162.083 1110.87 161.45C1109.64 160.817 1108.69 160.1 1108.02 159.3C1107.52 158.667 1107.16 157.983 1106.92 157.25C1106.69 156.483 1106.57 155.65 1106.57 154.75C1106.57 153.65 1106.81 152.65 1107.27 151.75C1107.77 150.817 1108.44 150.017 1109.27 149.35C1110.14 148.65 1111.14 148.117 1112.27 147.75C1113.44 147.383 1114.67 147.2 1115.97 147.2C1117.21 147.2 1118.42 147.367 1119.62 147.7C1120.86 148.033 1121.99 148.517 1123.02 149.15C1124.06 149.783 1124.92 150.533 1125.62 151.4L1122.67 154.65C1122.04 154.017 1121.34 153.467 1120.57 153C1119.84 152.5 1119.09 152.117 1118.32 151.85C1117.56 151.583 1116.86 151.45 1116.22 151.45C1115.52 151.45 1114.89 151.517 1114.32 151.65C1113.76 151.783 1113.27 151.983 1112.87 152.25C1112.51 152.517 1112.22 152.85 1112.02 153.25C1111.82 153.65 1111.72 154.1 1111.72 154.6C1111.76 155.033 1111.86 155.45 1112.02 155.85C1112.22 156.217 1112.49 156.533 1112.82 156.8C1113.19 157.067 1113.74 157.35 1114.47 157.65C1115.21 157.95 1116.14 158.233 1117.27 158.5C1118.94 158.933 1120.31 159.417 1121.37 159.95C1122.47 160.45 1123.34 161.033 1123.97 161.7C1124.64 162.333 1125.11 163.067 1125.37 163.9C1125.64 164.733 1125.77 165.667 1125.77 166.7C1125.77 168.2 1125.34 169.55 1124.47 170.75C1123.64 171.917 1122.51 172.833 1121.07 173.5C1119.64 174.167 1118.04 174.5 1116.27 174.5Z" fill="black"/>
<defs>
<filter id="filter0_d_0_1" x="13" y="13" width="239" height="239" filterUnits="userSpaceOnUse" color-interpolation-filters="sRGB">
<feFlood flood-opacity="0" result="BackgroundImageFix"/>
<feColorMatrix in="SourceAlpha" type="matrix" values="0 0 0 0 0 0 0 0 0 0 0 0 0 0 0 0 0 0 127 0" result="hardAlpha"/>
<feOffset/>
<feGaussianBlur stdDeviation="11.5"/>
<feComposite in2="hardAlpha" operator="out"/>
<feColorMatrix type="matrix" values="0 0 0 0 0.233333 0 0 0 0 0 0 0 0 0 1 0 0 0 1 0"/>
<feBlend mode="normal" in2="BackgroundImageFix" result="effect1_dropShadow_0_1"/>
<feBlend mode="normal" in="SourceGraphic" in2="effect1_dropShadow_0_1" result="shape"/>
</filter>
<clipPath id="clip0_0_1">
<rect width="967" height="265" fill="white"/>
</clipPath>
</defs>
</svg>
