<svg width="957" height="80" viewBox="0 0 957 80" fill="none" xmlns="http://www.w3.org/2000/svg">
<path d="M0 8.37139V77.1363C0 77.9303 0.672109 78.5557 1.46453 78.5048C16.44 77.5462 32.3723 72.6423 44.4198 63.1043C45.7819 62.0259 46.463 61.4867 46.949 60.6041C47.0272 60.4622 47.1164 60.2779 47.1791 60.1285C47.5694 59.1996 47.5694 58.2271 47.5694 56.2821V56.2821C47.5694 52.1358 47.5694 50.0626 46.4152 48.6734C46.2188 48.437 46.001 48.2192 45.7646 48.0228C44.3754 46.8687 42.3023 46.8687 38.156 46.8687H29.6103C27.3949 46.8687 25.4893 45.1649 25.3873 42.9517C25.2785 40.5905 27.1603 38.6453 29.4946 38.6453H38.1537C42.3025 38.6453 44.3768 38.6453 45.7664 37.4899C46.0017 37.2942 46.2186 37.0774 46.4142 36.8421C47.5696 35.4525 47.5696 33.3781 47.5696 29.2294V29.2294C47.5696 27.2836 47.5696 26.3107 47.1789 25.3812C47.1164 25.2325 47.0275 25.0489 46.9497 24.9076C46.4635 24.0243 45.7823 23.4852 44.42 22.4068C32.4271 12.9137 16.4969 7.95808 1.46426 7.00284C0.671836 6.95253 0 7.5776 0 8.37139ZM95.579 22.4096C94.2173 23.4881 93.5364 24.0274 93.0505 24.91C92.9725 25.0517 92.8835 25.2357 92.8208 25.3848C92.4306 26.3138 92.4306 27.2862 92.4306 29.231V29.231C92.4306 33.3782 92.4306 35.4517 93.5852 36.8411C93.7814 37.0771 93.9988 37.2946 94.2349 37.4907C95.6242 38.6453 97.6978 38.6453 101.845 38.6453H110.388C112.602 38.6453 114.507 40.345 114.612 42.5555C114.725 44.9166 112.842 46.8687 110.506 46.8687H101.847C97.6978 46.8687 95.6234 46.8687 94.2339 48.0241C93.9986 48.2197 93.7817 48.4366 93.5861 48.6719C92.4306 50.0615 92.4306 52.1358 92.4306 56.2846V56.2846C92.4306 58.2304 92.4306 59.2033 92.8214 60.1327C92.8839 60.2814 92.9727 60.4651 93.0505 60.6064C93.5368 61.4896 94.218 62.0288 95.5803 63.1072C107.573 72.6003 123.504 77.5559 138.536 78.5111C139.328 78.5614 140 77.9363 140 77.1426V8.37768C140 7.58362 139.328 6.95854 138.535 7.00913C123.523 7.9697 107.607 12.8829 95.579 22.4096ZM65.7927 26.8886C61.0787 26.8886 58.7217 26.8886 57.2572 28.353C55.7927 29.8175 55.7927 32.1745 55.7927 36.8886V48.6254C55.7927 53.3394 55.7927 55.6964 57.2572 57.1609C58.7217 58.6254 61.0787 58.6254 65.7927 58.6254H74.2073C78.9213 58.6254 81.2783 58.6254 82.7428 57.1609C84.2073 55.6964 84.2073 53.3394 84.2073 48.6254V36.8886C84.2073 32.1745 84.2073 29.8175 82.7428 28.353C81.2783 26.8886 78.9213 26.8886 74.2073 26.8886H65.7927Z" fill="#121214"/>
<path d="M210.1 80C205.033 80 200.4 79.1333 196.2 77.4C192 75.6667 188.367 73.2 185.3 70C182.233 66.7333 179.833 62.9 178.1 58.5C176.433 54.0333 175.6 49.1667 175.6 43.9C175.6 38.8333 176.5 34.1333 178.3 29.8C180.1 25.4667 182.6 21.6667 185.8 18.4C189 15.1333 192.733 12.6 197 10.8C201.267 9 205.9 8.09999 210.9 8.09999C214.3 8.09999 217.6 8.6 220.8 9.6C224 10.6 226.933 12 229.6 13.8C232.267 15.5333 234.5 17.5667 236.3 19.9L228 29C226.267 27.2 224.467 25.7 222.6 24.5C220.8 23.2333 218.9 22.3 216.9 21.7C214.967 21.0333 212.967 20.7 210.9 20.7C207.833 20.7 204.933 21.2667 202.2 22.4C199.533 23.5333 197.2 25.1333 195.2 27.2C193.267 29.2667 191.733 31.7333 190.6 34.6C189.467 37.4 188.9 40.5333 188.9 44C188.9 47.5333 189.433 50.7333 190.5 53.6C191.633 56.4667 193.2 58.9333 195.2 61C197.267 63.0667 199.7 64.6667 202.5 65.8C205.367 66.8667 208.5 67.4 211.9 67.4C214.1 67.4 216.233 67.1 218.3 66.5C220.367 65.9 222.267 65.0667 224 64C225.8 62.8667 227.433 61.5667 228.9 60.1L235.3 70.4C233.7 72.2 231.567 73.8333 228.9 75.3C226.233 76.7667 223.233 77.9333 219.9 78.8C216.633 79.6 213.367 80 210.1 80ZM270.659 80C265.393 80 260.693 78.8333 256.559 76.5C252.426 74.1 249.159 70.8333 246.759 66.7C244.359 62.5667 243.159 57.8667 243.159 52.6C243.159 47.3333 244.359 42.6333 246.759 38.5C249.159 34.3667 252.426 31.1333 256.559 28.8C260.693 26.4 265.393 25.2 270.659 25.2C275.859 25.2 280.526 26.4 284.659 28.8C288.793 31.1333 292.026 34.3667 294.359 38.5C296.759 42.6333 297.959 47.3333 297.959 52.6C297.959 57.8667 296.759 62.5667 294.359 66.7C292.026 70.8333 288.793 74.1 284.659 76.5C280.526 78.8333 275.859 80 270.659 80ZM270.659 69.1C273.526 69.1 276.059 68.3667 278.259 66.9C280.526 65.4333 282.293 63.4667 283.559 61C284.893 58.5333 285.526 55.7333 285.459 52.6C285.526 49.4 284.893 46.5667 283.559 44.1C282.293 41.6333 280.526 39.7 278.259 38.3C276.059 36.8333 273.526 36.1 270.659 36.1C267.793 36.1 265.193 36.8333 262.859 38.3C260.593 39.7 258.826 41.6667 257.559 44.2C256.293 46.6667 255.659 49.4667 255.659 52.6C255.659 55.7333 256.293 58.5333 257.559 61C258.826 63.4667 260.593 65.4333 262.859 66.9C265.193 68.3667 267.793 69.1 270.659 69.1ZM308.962 79V26.3H320.962L321.162 37.1L318.862 38.3C319.528 35.9 320.828 33.7333 322.762 31.8C324.695 29.8 326.995 28.2 329.662 27C332.328 25.8 335.062 25.2 337.862 25.2C341.862 25.2 345.195 26 347.862 27.6C350.595 29.2 352.628 31.6 353.962 34.8C355.362 38 356.062 42 356.062 46.8V79H343.762V47.7C343.762 45.0333 343.395 42.8333 342.662 41.1C341.928 39.3 340.795 38 339.262 37.2C337.728 36.3333 335.862 35.9333 333.662 36C331.862 36 330.195 36.3 328.662 36.9C327.195 37.4333 325.895 38.2333 324.762 39.3C323.695 40.3 322.828 41.4667 322.162 42.8C321.562 44.1333 321.262 45.6 321.262 47.2V79H315.162C313.962 79 312.828 79 311.762 79C310.762 79 309.828 79 308.962 79ZM374.699 79V21.6C374.699 18.4 375.399 15.5667 376.799 13.1C378.199 10.5667 380.133 8.6 382.599 7.19999C385.066 5.73333 387.933 5 391.199 5C393.466 5 395.566 5.4 397.499 6.2C399.433 6.93333 401.066 7.96667 402.399 9.3L398.599 18.6C397.733 17.8667 396.799 17.3 395.799 16.9C394.866 16.5 393.966 16.3 393.099 16.3C391.766 16.3 390.633 16.5333 389.699 17C388.833 17.4 388.166 18.0333 387.699 18.9C387.299 19.7667 387.099 20.8 387.099 22V79H380.899C379.699 79 378.566 79 377.499 79C376.499 79 375.566 79 374.699 79ZM366.499 38.2V27.4H398.999V38.2H366.499ZM410.599 79V26.3H422.899V79H410.599ZM416.599 15.1C414.133 15.1 412.199 14.5 410.799 13.3C409.466 12.0333 408.799 10.2667 408.799 8C408.799 5.86666 409.499 4.13333 410.899 2.8C412.299 1.46666 414.199 0.799994 416.599 0.799994C419.133 0.799994 421.066 1.43333 422.399 2.7C423.799 3.9 424.499 5.66666 424.499 8C424.499 10.0667 423.799 11.7667 422.399 13.1C420.999 14.4333 419.066 15.1 416.599 15.1ZM459.654 80C454.987 80 450.787 78.8333 447.054 76.5C443.387 74.1 440.454 70.8667 438.254 66.8C436.121 62.6667 435.054 57.9333 435.054 52.6C435.054 47.3333 436.121 42.6333 438.254 38.5C440.387 34.3667 443.287 31.1333 446.954 28.8C450.687 26.4 454.887 25.2 459.554 25.2C462.087 25.2 464.521 25.6 466.854 26.4C469.254 27.2 471.387 28.3 473.254 29.7C475.121 31.0333 476.587 32.5333 477.654 34.2C478.787 35.8667 479.421 37.6 479.554 39.4L476.254 39.8V5H488.554V79H476.654L476.354 66.6L478.754 66.8C478.687 68.4667 478.087 70.0667 476.954 71.6C475.887 73.1333 474.487 74.5333 472.754 75.8C471.021 77.0667 468.987 78.1 466.654 78.9C464.387 79.6333 462.054 80 459.654 80ZM462.054 69.6C464.921 69.6 467.454 68.8667 469.654 67.4C471.854 65.9333 473.554 63.9333 474.754 61.4C476.021 58.8667 476.654 55.9333 476.654 52.6C476.654 49.3333 476.021 46.4333 474.754 43.9C473.554 41.3 471.854 39.3 469.654 37.9C467.454 36.4333 464.921 35.7 462.054 35.7C459.187 35.7 456.654 36.4333 454.454 37.9C452.254 39.3 450.521 41.3 449.254 43.9C448.054 46.4333 447.454 49.3333 447.454 52.6C447.454 55.9333 448.054 58.8667 449.254 61.4C450.521 63.9333 452.254 65.9333 454.454 67.4C456.654 68.8667 459.187 69.6 462.054 69.6ZM527.216 80C521.683 80 516.783 78.8333 512.516 76.5C508.316 74.1667 505.016 71 502.616 67C500.283 62.9333 499.116 58.3 499.116 53.1C499.116 48.9667 499.783 45.2 501.116 41.8C502.45 38.4 504.283 35.4667 506.616 33C509.016 30.4667 511.85 28.5333 515.116 27.2C518.45 25.8 522.083 25.1 526.016 25.1C529.483 25.1 532.716 25.7667 535.716 27.1C538.716 28.4333 541.316 30.2667 543.516 32.6C545.716 34.8667 547.383 37.6 548.516 40.8C549.716 43.9333 550.283 47.3667 550.216 51.1L550.116 55.4H507.416L505.116 47H539.816L538.216 48.7V46.5C538.016 44.4333 537.35 42.6333 536.216 41.1C535.083 39.5 533.616 38.2667 531.816 37.4C530.083 36.4667 528.15 36 526.016 36C522.75 36 519.983 36.6333 517.716 37.9C515.516 39.1667 513.85 41 512.716 43.4C511.583 45.7333 511.016 48.6667 511.016 52.2C511.016 55.6 511.716 58.5667 513.116 61.1C514.583 63.6333 516.616 65.6 519.216 67C521.883 68.3333 524.983 69 528.516 69C530.983 69 533.25 68.6 535.316 67.8C537.383 67 539.616 65.5667 542.016 63.5L548.116 72C546.316 73.6667 544.25 75.1 541.916 76.3C539.65 77.4333 537.25 78.3333 534.716 79C532.183 79.6667 529.683 80 527.216 80ZM561.11 79V26.3H573.11L573.31 37.1L571.01 38.3C571.677 35.9 572.977 33.7333 574.91 31.8C576.843 29.8 579.143 28.2 581.81 27C584.477 25.8 587.21 25.2 590.01 25.2C594.01 25.2 597.343 26 600.01 27.6C602.743 29.2 604.777 31.6 606.11 34.8C607.51 38 608.21 42 608.21 46.8V79H595.91V47.7C595.91 45.0333 595.543 42.8333 594.81 41.1C594.077 39.3 592.943 38 591.41 37.2C589.877 36.3333 588.01 35.9333 585.81 36C584.01 36 582.343 36.3 580.81 36.9C579.343 37.4333 578.043 38.2333 576.91 39.3C575.843 40.3 574.977 41.4667 574.31 42.8C573.71 44.1333 573.41 45.6 573.41 47.2V79H567.31C566.11 79 564.977 79 563.91 79C562.91 79 561.977 79 561.11 79ZM627.748 79V12.9H640.048V79H627.748ZM617.348 37.7V26.3H651.548V37.7H617.348ZM684.709 79L712.009 9H724.209L751.309 79H737.809L722.809 39.2C722.476 38.4 722.009 37.1333 721.409 35.4C720.876 33.6667 720.276 31.8 719.609 29.8C718.943 27.7333 718.343 25.8333 717.809 24.1C717.276 22.3 716.876 21 716.609 20.2L719.109 20.1C718.709 21.4333 718.243 22.9333 717.709 24.6C717.176 26.2667 716.609 28 716.009 29.8C715.409 31.6 714.809 33.3333 714.209 35C713.676 36.6667 713.176 38.1667 712.709 39.5L697.709 79H684.709ZM697.109 63L701.609 51.7H733.509L738.309 63H697.109ZM760.234 79V67.5H771.734V20.5H760.234V9H796.234V20.5H784.734V67.5H796.234V79H760.234Z" fill="#121214"/>
<path d="M842.7 79V44H856.75C859.283 44 861.567 44.4167 863.6 45.25C865.667 46.0833 867.433 47.2833 868.9 48.85C870.4 50.4167 871.533 52.2667 872.3 54.4C873.1 56.5333 873.5 58.9 873.5 61.5C873.5 64.1 873.1 66.4833 872.3 68.65C871.533 70.7833 870.417 72.6333 868.95 74.2C867.483 75.7333 865.717 76.9167 863.65 77.75C861.583 78.5833 859.283 79 856.75 79H842.7ZM849.2 73.95L848.7 73H856.5C858.133 73 859.583 72.7333 860.85 72.2C862.15 71.6667 863.25 70.9 864.15 69.9C865.05 68.9 865.733 67.7 866.2 66.3C866.667 64.8667 866.9 63.2667 866.9 61.5C866.9 59.7333 866.667 58.15 866.2 56.75C865.733 55.3167 865.033 54.1 864.1 53.1C863.2 52.1 862.117 51.3333 860.85 50.8C859.583 50.2667 858.133 50 856.5 50H848.55L849.2 49.15V73.95ZM891.492 79.5C888.858 79.5 886.508 78.9167 884.442 77.75C882.375 76.55 880.742 74.9167 879.542 72.85C878.342 70.7833 877.742 68.4333 877.742 65.8C877.742 63.1667 878.342 60.8167 879.542 58.75C880.742 56.6833 882.375 55.0667 884.442 53.9C886.508 52.7 888.858 52.1 891.492 52.1C894.092 52.1 896.425 52.7 898.492 53.9C900.558 55.0667 902.175 56.6833 903.342 58.75C904.542 60.8167 905.142 63.1667 905.142 65.8C905.142 68.4333 904.542 70.7833 903.342 72.85C902.175 74.9167 900.558 76.55 898.492 77.75C896.425 78.9167 894.092 79.5 891.492 79.5ZM891.492 74.05C892.925 74.05 894.192 73.6833 895.292 72.95C896.425 72.2167 897.308 71.2333 897.942 70C898.608 68.7667 898.925 67.3667 898.892 65.8C898.925 64.2 898.608 62.7833 897.942 61.55C897.308 60.3167 896.425 59.35 895.292 58.65C894.192 57.9167 892.925 57.55 891.492 57.55C890.058 57.55 888.758 57.9167 887.592 58.65C886.458 59.35 885.575 60.3333 884.942 61.6C884.308 62.8333 883.992 64.2333 883.992 65.8C883.992 67.3667 884.308 68.7667 884.942 70C885.575 71.2333 886.458 72.2167 887.592 72.95C888.758 73.6833 890.058 74.05 891.492 74.05ZM921.943 79.5C919.476 79.5 917.26 78.9 915.293 77.7C913.326 76.5 911.776 74.8667 910.643 72.8C909.51 70.7333 908.943 68.4 908.943 65.8C908.943 63.2 909.51 60.8667 910.643 58.8C911.776 56.7333 913.326 55.1 915.293 53.9C917.26 52.7 919.476 52.1 921.943 52.1C924.31 52.1 926.46 52.55 928.393 53.45C930.326 54.35 931.826 55.6 932.893 57.2L929.493 61.3C928.993 60.6 928.36 59.9667 927.593 59.4C926.826 58.8333 926.01 58.3833 925.143 58.05C924.276 57.7167 923.41 57.55 922.543 57.55C921.076 57.55 919.76 57.9167 918.593 58.65C917.46 59.35 916.56 60.3333 915.893 61.6C915.226 62.8333 914.893 64.2333 914.893 65.8C914.893 67.3667 915.226 68.7667 915.893 70C916.593 71.2333 917.526 72.2167 918.693 72.95C919.86 73.6833 921.16 74.05 922.593 74.05C923.46 74.05 924.293 73.9167 925.093 73.65C925.926 73.35 926.71 72.9333 927.443 72.4C928.176 71.8667 928.86 71.2 929.493 70.4L932.893 74.55C931.76 76.0167 930.193 77.2167 928.193 78.15C926.226 79.05 924.143 79.5 921.943 79.5ZM946.396 79.5C944.063 79.5 941.963 79.1167 940.096 78.35C938.263 77.55 936.763 76.4167 935.596 74.95L939.596 71.5C940.596 72.6333 941.713 73.45 942.946 73.95C944.179 74.45 945.479 74.7 946.846 74.7C947.413 74.7 947.913 74.6333 948.346 74.5C948.813 74.3667 949.213 74.1667 949.546 73.9C949.879 73.6333 950.129 73.3333 950.296 73C950.496 72.6333 950.596 72.2333 950.596 71.8C950.596 71 950.296 70.3667 949.696 69.9C949.363 69.6667 948.829 69.4167 948.096 69.15C947.396 68.8833 946.479 68.6167 945.346 68.35C943.546 67.8833 942.046 67.35 940.846 66.75C939.646 66.1167 938.713 65.4167 938.046 64.65C937.479 64.0167 937.046 63.3 936.746 62.5C936.479 61.7 936.346 60.8333 936.346 59.9C936.346 58.7333 936.596 57.6833 937.096 56.75C937.629 55.7833 938.346 54.95 939.246 54.25C940.146 53.55 941.196 53.0167 942.396 52.65C943.596 52.2833 944.846 52.1 946.146 52.1C947.479 52.1 948.763 52.2667 949.996 52.6C951.263 52.9333 952.429 53.4167 953.496 54.05C954.596 54.65 955.529 55.3833 956.296 56.25L952.896 60C952.263 59.4 951.563 58.8667 950.796 58.4C950.063 57.9333 949.313 57.5667 948.546 57.3C947.779 57 947.063 56.85 946.396 56.85C945.763 56.85 945.196 56.9167 944.696 57.05C944.196 57.15 943.779 57.3167 943.446 57.55C943.113 57.7833 942.846 58.0833 942.646 58.45C942.479 58.7833 942.396 59.1833 942.396 59.65C942.429 60.05 942.529 60.4333 942.696 60.8C942.896 61.1333 943.163 61.4167 943.496 61.65C943.863 61.8833 944.413 62.15 945.146 62.45C945.879 62.75 946.829 63.0333 947.996 63.3C949.629 63.7333 950.996 64.2167 952.096 64.75C953.196 65.2833 954.063 65.9 954.696 66.6C955.329 67.2 955.779 67.9 956.046 68.7C956.313 69.5 956.446 70.3833 956.446 71.35C956.446 72.9167 955.996 74.3167 955.096 75.55C954.229 76.7833 953.029 77.75 951.496 78.45C949.996 79.15 948.296 79.5 946.396 79.5Z" fill="#121214"/>
</svg>
