<svg width="1112" height="239" viewBox="0 0 1112 239" fill="none" xmlns="http://www.w3.org/2000/svg">
<path d="M308.02 160.1C302.667 160.1 297.753 159.147 293.28 157.24C288.807 155.333 284.92 152.62 281.62 149.1C278.32 145.507 275.753 141.29 273.92 136.45C272.16 131.61 271.28 126.293 271.28 120.5C271.28 115 272.233 109.903 274.14 105.21C276.12 100.443 278.833 96.2633 282.28 92.67C285.727 89.0767 289.723 86.29 294.27 84.31C298.817 82.33 303.73 81.34 309.01 81.34C312.75 81.34 316.38 81.9267 319.9 83.1C323.493 84.2 326.72 85.7767 329.58 87.83C332.513 89.81 334.897 92.0833 336.73 94.65L328.81 102.9C326.683 100.773 324.52 99.0133 322.32 97.62C320.193 96.1533 317.993 95.0533 315.72 94.32C313.52 93.5867 311.283 93.22 309.01 93.22C305.417 93.22 302.043 93.9167 298.89 95.31C295.81 96.63 293.097 98.5 290.75 100.92C288.477 103.34 286.68 106.237 285.36 109.61C284.04 112.91 283.38 116.54 283.38 120.5C283.38 124.68 284.003 128.493 285.25 131.94C286.57 135.313 288.403 138.21 290.75 140.63C293.097 143.05 295.883 144.92 299.11 146.24C302.41 147.487 306.04 148.11 310 148.11C312.42 148.11 314.803 147.78 317.15 147.12C319.497 146.46 321.697 145.507 323.75 144.26C325.803 143.013 327.673 141.547 329.36 139.86L335.3 149.54C333.613 151.52 331.303 153.317 328.37 154.93C325.51 156.543 322.283 157.827 318.69 158.78C315.17 159.66 311.613 160.1 308.02 160.1ZM374.538 160.1C368.892 160.1 363.832 158.817 359.358 156.25C354.958 153.61 351.475 150.053 348.908 145.58C346.342 141.033 345.058 135.863 345.058 130.07C345.058 124.277 346.342 119.143 348.908 114.67C351.475 110.123 354.958 106.567 359.358 104C363.832 101.36 368.892 100.04 374.538 100.04C380.112 100.04 385.098 101.36 389.498 104C393.972 106.567 397.492 110.123 400.058 114.67C402.625 119.143 403.908 124.277 403.908 130.07C403.908 135.863 402.625 141.033 400.058 145.58C397.492 150.053 393.972 153.61 389.498 156.25C385.098 158.817 380.112 160.1 374.538 160.1ZM374.538 149.76C377.985 149.76 381.065 148.917 383.778 147.23C386.492 145.47 388.618 143.123 390.158 140.19C391.698 137.183 392.432 133.81 392.358 130.07C392.432 126.257 391.698 122.883 390.158 119.95C388.618 116.943 386.492 114.597 383.778 112.91C381.065 111.223 377.985 110.38 374.538 110.38C371.092 110.38 367.975 111.26 365.188 113.02C362.475 114.707 360.348 117.053 358.808 120.06C357.268 122.993 356.535 126.33 356.608 130.07C356.535 133.81 357.268 137.183 358.808 140.19C360.348 143.123 362.475 145.47 365.188 147.23C367.975 148.917 371.092 149.76 374.538 149.76ZM416.254 159V101.25H427.584V113.13L425.604 114.45C426.337 111.883 427.767 109.537 429.894 107.41C432.021 105.21 434.551 103.45 437.484 102.13C440.417 100.737 443.424 100.04 446.504 100.04C450.904 100.04 454.571 100.92 457.504 102.68C460.437 104.367 462.637 106.97 464.104 110.49C465.571 114.01 466.304 118.447 466.304 123.8V159H454.974V124.57C454.974 121.27 454.534 118.557 453.654 116.43C452.774 114.23 451.417 112.653 449.584 111.7C447.751 110.673 445.477 110.233 442.764 110.38C440.564 110.38 438.547 110.747 436.714 111.48C434.881 112.14 433.267 113.093 431.874 114.34C430.554 115.587 429.491 117.053 428.684 118.74C427.951 120.353 427.584 122.113 427.584 124.02V159H421.974C421.021 159 420.067 159 419.114 159C418.161 159 417.207 159 416.254 159ZM487.944 159V94.76C487.944 91.46 488.677 88.5267 490.144 85.96C491.611 83.3933 493.627 81.3767 496.194 79.91C498.761 78.4433 501.731 77.71 505.104 77.71C507.451 77.71 509.651 78.15 511.704 79.03C513.757 79.91 515.407 81.0833 516.654 82.55L512.804 91.24C511.851 90.36 510.787 89.6633 509.614 89.15C508.514 88.5633 507.451 88.27 506.424 88.27C504.884 88.27 503.564 88.5267 502.464 89.04C501.437 89.48 500.667 90.2133 500.154 91.24C499.641 92.1933 499.384 93.3667 499.384 94.76V159H493.664C492.711 159 491.757 159 490.804 159C489.851 159 488.897 159 487.944 159ZM478.704 112.69V102.24H513.024V112.69H478.704ZM526.774 159V101.25H538.104V159H526.774ZM532.274 88.49C529.854 88.49 527.984 87.8667 526.664 86.62C525.344 85.3733 524.684 83.6133 524.684 81.34C524.684 79.2133 525.344 77.49 526.664 76.17C528.057 74.85 529.927 74.19 532.274 74.19C534.694 74.19 536.564 74.8133 537.884 76.06C539.204 77.3067 539.864 79.0667 539.864 81.34C539.864 83.4667 539.167 85.19 537.774 86.51C536.454 87.83 534.621 88.49 532.274 88.49ZM579.563 160.1C574.283 160.1 569.553 158.817 565.373 156.25C561.266 153.61 558.003 150.053 555.583 145.58C553.163 141.033 551.953 135.863 551.953 130.07C551.953 124.277 553.126 119.143 555.473 114.67C557.893 110.123 561.156 106.567 565.263 104C569.369 101.36 574.026 100.04 579.233 100.04C582.093 100.04 584.843 100.517 587.483 101.47C590.196 102.35 592.616 103.597 594.743 105.21C596.869 106.75 598.519 108.473 599.693 110.38C600.939 112.213 601.563 114.083 601.563 115.99L598.263 116.21V77.6H609.593V159H598.263V145.25H600.463C600.463 147.01 599.876 148.77 598.703 150.53C597.529 152.217 595.953 153.793 593.973 155.26C592.066 156.727 589.829 157.9 587.263 158.78C584.769 159.66 582.203 160.1 579.563 160.1ZM581.103 150.31C584.549 150.31 587.593 149.43 590.233 147.67C592.873 145.91 594.926 143.527 596.393 140.52C597.933 137.44 598.703 133.957 598.703 130.07C598.703 126.183 597.933 122.737 596.393 119.73C594.926 116.65 592.873 114.23 590.233 112.47C587.593 110.71 584.549 109.83 581.103 109.83C577.656 109.83 574.613 110.71 571.973 112.47C569.333 114.23 567.243 116.65 565.703 119.73C564.236 122.737 563.503 126.183 563.503 130.07C563.503 133.957 564.236 137.44 565.703 140.52C567.243 143.527 569.333 145.91 571.973 147.67C574.613 149.43 577.656 150.31 581.103 150.31ZM652.14 160.1C646.2 160.1 640.92 158.853 636.3 156.36C631.753 153.793 628.16 150.31 625.52 145.91C622.953 141.51 621.67 136.45 621.67 130.73C621.67 126.183 622.403 122.04 623.87 118.3C625.336 114.56 627.353 111.333 629.92 108.62C632.56 105.833 635.676 103.707 639.27 102.24C642.936 100.7 646.896 99.93 651.15 99.93C654.89 99.93 658.373 100.663 661.6 102.13C664.826 103.523 667.613 105.467 669.96 107.96C672.38 110.453 674.213 113.423 675.46 116.87C676.78 120.243 677.403 123.947 677.33 127.98L677.22 132.82H630.03L627.5 123.8H667.43L665.78 125.67V123.03C665.56 120.61 664.753 118.447 663.36 116.54C661.966 114.633 660.206 113.13 658.08 112.03C655.953 110.93 653.643 110.38 651.15 110.38C647.19 110.38 643.853 111.15 641.14 112.69C638.426 114.157 636.373 116.357 634.98 119.29C633.586 122.15 632.89 125.707 632.89 129.96C632.89 133.993 633.733 137.513 635.42 140.52C637.106 143.453 639.49 145.727 642.57 147.34C645.65 148.953 649.206 149.76 653.24 149.76C656.1 149.76 658.74 149.283 661.16 148.33C663.653 147.377 666.33 145.653 669.19 143.16L674.91 151.19C673.15 152.95 670.986 154.49 668.42 155.81C665.926 157.13 663.25 158.193 660.39 159C657.603 159.733 654.853 160.1 652.14 160.1ZM689.643 159V101.25H700.973V113.13L698.993 114.45C699.726 111.883 701.156 109.537 703.283 107.41C705.409 105.21 707.939 103.45 710.873 102.13C713.806 100.737 716.813 100.04 719.893 100.04C724.293 100.04 727.959 100.92 730.893 102.68C733.826 104.367 736.026 106.97 737.493 110.49C738.959 114.01 739.693 118.447 739.693 123.8V159H728.363V124.57C728.363 121.27 727.923 118.557 727.043 116.43C726.163 114.23 724.806 112.653 722.973 111.7C721.139 110.673 718.866 110.233 716.153 110.38C713.953 110.38 711.936 110.747 710.103 111.48C708.269 112.14 706.656 113.093 705.263 114.34C703.943 115.587 702.879 117.053 702.073 118.74C701.339 120.353 700.973 122.113 700.973 124.02V159H695.363C694.409 159 693.456 159 692.503 159C691.549 159 690.596 159 689.643 159ZM762.213 159V86.51H773.543V159H762.213ZM750.223 112.25V101.25H786.963V112.25H750.223ZM822.939 159L852.749 82H864.849L894.439 159H881.789L864.189 112.58C863.969 112.067 863.529 110.82 862.869 108.84C862.283 106.86 861.586 104.66 860.779 102.24C859.973 99.82 859.239 97.62 858.579 95.64C857.919 93.5867 857.479 92.2667 857.259 91.68L859.789 91.57C859.349 92.8167 858.799 94.3933 858.139 96.3C857.553 98.2067 856.893 100.223 856.159 102.35C855.499 104.477 854.839 106.493 854.179 108.4C853.519 110.233 852.969 111.773 852.529 113.02L835.039 159H822.939ZM836.139 139.86L840.539 128.42H875.519L880.579 139.86H836.139ZM905.131 159V148H917.561V93H905.131V82H941.871V93H929.441V148H941.871V159H905.131Z" fill="black"/>
<path d="M999.132 159.52C996.636 159.52 994.4 158.913 992.424 157.7C990.483 156.452 988.94 154.771 987.796 152.656C986.652 150.507 986.08 148.063 986.08 145.324C986.08 142.585 986.635 140.159 987.744 138.044C988.888 135.895 990.431 134.213 992.372 133C994.313 131.752 996.515 131.128 998.976 131.128C1000.33 131.128 1001.63 131.353 1002.88 131.804C1004.16 132.22 1005.3 132.809 1006.31 133.572C1007.31 134.3 1008.09 135.115 1008.65 136.016C1009.24 136.883 1009.53 137.767 1009.53 138.668L1007.97 138.772V120.52H1013.33V159H1007.97V152.5H1009.01C1009.01 153.332 1008.73 154.164 1008.18 154.996C1007.63 155.793 1006.88 156.539 1005.94 157.232C1005.04 157.925 1003.99 158.48 1002.77 158.896C1001.59 159.312 1000.38 159.52 999.132 159.52ZM999.86 154.892C1001.49 154.892 1002.93 154.476 1004.18 153.644C1005.42 152.812 1006.39 151.685 1007.09 150.264C1007.82 148.808 1008.18 147.161 1008.18 145.324C1008.18 143.487 1007.82 141.857 1007.09 140.436C1006.39 138.98 1005.42 137.836 1004.18 137.004C1002.93 136.172 1001.49 135.756 999.86 135.756C998.231 135.756 996.792 136.172 995.544 137.004C994.296 137.836 993.308 138.98 992.58 140.436C991.887 141.857 991.54 143.487 991.54 145.324C991.54 147.161 991.887 148.808 992.58 150.264C993.308 151.685 994.296 152.812 995.544 153.644C996.792 154.476 998.231 154.892 999.86 154.892ZM1032.97 159.52C1030.3 159.52 1027.91 158.913 1025.8 157.7C1023.72 156.452 1022.07 154.771 1020.86 152.656C1019.64 150.507 1019.04 148.063 1019.04 145.324C1019.04 142.585 1019.64 140.159 1020.86 138.044C1022.07 135.895 1023.72 134.213 1025.8 133C1027.91 131.752 1030.3 131.128 1032.97 131.128C1035.61 131.128 1037.97 131.752 1040.05 133C1042.16 134.213 1043.82 135.895 1045.04 138.044C1046.25 140.159 1046.86 142.585 1046.86 145.324C1046.86 148.063 1046.25 150.507 1045.04 152.656C1043.82 154.771 1042.16 156.452 1040.05 157.7C1037.97 158.913 1035.61 159.52 1032.97 159.52ZM1032.97 154.632C1034.6 154.632 1036.06 154.233 1037.34 153.436C1038.62 152.604 1039.63 151.495 1040.36 150.108C1041.09 148.687 1041.43 147.092 1041.4 145.324C1041.43 143.521 1041.09 141.927 1040.36 140.54C1039.63 139.119 1038.62 138.009 1037.34 137.212C1036.06 136.415 1034.6 136.016 1032.97 136.016C1031.34 136.016 1029.87 136.432 1028.55 137.264C1027.27 138.061 1026.27 139.171 1025.54 140.592C1024.81 141.979 1024.46 143.556 1024.5 145.324C1024.46 147.092 1024.81 148.687 1025.54 150.108C1026.27 151.495 1027.27 152.604 1028.55 153.436C1029.87 154.233 1031.34 154.632 1032.97 154.632ZM1064.29 159.52C1061.76 159.52 1059.49 158.896 1057.48 157.648C1055.5 156.4 1053.92 154.701 1052.75 152.552C1051.6 150.403 1051.03 147.993 1051.03 145.324C1051.03 142.655 1051.6 140.245 1052.75 138.096C1053.92 135.947 1055.5 134.248 1057.48 133C1059.49 131.752 1061.76 131.128 1064.29 131.128C1066.72 131.128 1068.92 131.631 1070.89 132.636C1072.9 133.607 1074.43 134.941 1075.47 136.64L1072.51 140.28C1071.95 139.483 1071.24 138.755 1070.37 138.096C1069.51 137.437 1068.59 136.917 1067.62 136.536C1066.65 136.155 1065.71 135.964 1064.81 135.964C1063.15 135.964 1061.65 136.38 1060.34 137.212C1059.05 138.009 1058.03 139.119 1057.27 140.54C1056.51 141.961 1056.13 143.556 1056.13 145.324C1056.13 147.092 1056.52 148.687 1057.32 150.108C1058.12 151.495 1059.18 152.604 1060.49 153.436C1061.81 154.268 1063.27 154.684 1064.86 154.684C1065.8 154.684 1066.7 154.528 1067.57 154.216C1068.47 153.904 1069.33 153.436 1070.17 152.812C1071 152.188 1071.78 151.425 1072.51 150.524L1075.47 154.164C1074.36 155.724 1072.77 157.007 1070.69 158.012C1068.64 159.017 1066.51 159.52 1064.29 159.52ZM1089.62 159.52C1087.33 159.52 1085.27 159.121 1083.43 158.324C1081.6 157.527 1080.07 156.348 1078.86 154.788L1082.5 151.668C1083.54 152.881 1084.66 153.765 1085.88 154.32C1087.13 154.84 1088.53 155.1 1090.09 155.1C1090.71 155.1 1091.29 155.031 1091.81 154.892C1092.36 154.719 1092.83 154.476 1093.21 154.164C1093.63 153.852 1093.94 153.488 1094.15 153.072C1094.35 152.621 1094.46 152.136 1094.46 151.616C1094.46 150.715 1094.13 149.987 1093.47 149.432C1093.12 149.189 1092.57 148.929 1091.81 148.652C1091.08 148.34 1090.12 148.028 1088.95 147.716C1086.93 147.196 1085.29 146.607 1084.01 145.948C1082.72 145.289 1081.73 144.544 1081.04 143.712C1080.52 143.053 1080.14 142.343 1079.9 141.58C1079.65 140.783 1079.53 139.916 1079.53 138.98C1079.53 137.836 1079.78 136.796 1080.26 135.86C1080.78 134.889 1081.47 134.057 1082.34 133.364C1083.24 132.636 1084.28 132.081 1085.46 131.7C1086.67 131.319 1087.96 131.128 1089.31 131.128C1090.59 131.128 1091.86 131.301 1093.11 131.648C1094.39 131.995 1095.57 132.497 1096.64 133.156C1097.72 133.815 1098.62 134.595 1099.35 135.496L1096.28 138.876C1095.62 138.217 1094.89 137.645 1094.09 137.16C1093.33 136.64 1092.55 136.241 1091.75 135.964C1090.96 135.687 1090.23 135.548 1089.57 135.548C1088.84 135.548 1088.18 135.617 1087.59 135.756C1087 135.895 1086.5 136.103 1086.09 136.38C1085.7 136.657 1085.41 137.004 1085.2 137.42C1084.99 137.836 1084.89 138.304 1084.89 138.824C1084.92 139.275 1085.03 139.708 1085.2 140.124C1085.41 140.505 1085.69 140.835 1086.03 141.112C1086.41 141.389 1086.99 141.684 1087.75 141.996C1088.51 142.308 1089.48 142.603 1090.66 142.88C1092.39 143.331 1093.82 143.833 1094.93 144.388C1096.07 144.908 1096.97 145.515 1097.63 146.208C1098.32 146.867 1098.81 147.629 1099.09 148.496C1099.36 149.363 1099.5 150.333 1099.5 151.408C1099.5 152.968 1099.05 154.372 1098.15 155.62C1097.28 156.833 1096.1 157.787 1094.61 158.48C1093.12 159.173 1091.46 159.52 1089.62 159.52ZM1107.59 159.572C1106.44 159.572 1105.56 159.243 1104.94 158.584C1104.31 157.891 1104 156.92 1104 155.672C1104 154.528 1104.33 153.592 1104.99 152.864C1105.65 152.136 1106.51 151.772 1107.59 151.772C1108.73 151.772 1109.62 152.119 1110.24 152.812C1110.86 153.471 1111.18 154.424 1111.18 155.672C1111.18 156.816 1110.85 157.752 1110.19 158.48C1109.53 159.208 1108.66 159.572 1107.59 159.572Z" fill="black"/>
<g filter="url(#filter0_d_0_1)">
<path d="M216 119.5C216 66.2045 172.795 23 119.5 23C66.2045 23 23 66.2045 23 119.5C23 172.795 66.2045 216 119.5 216C172.795 216 216 172.795 216 119.5Z" fill="#10002A"/>
<path d="M211.5 119.5C211.5 68.6898 170.31 27.5 119.5 27.5C68.6898 27.5 27.5 68.6898 27.5 119.5C27.5 170.31 68.6898 211.5 119.5 211.5C170.31 211.5 211.5 170.31 211.5 119.5Z" stroke="#6E00FF" stroke-width="9"/>
</g>
<path d="M79 99.8057V140.191C79 140.657 79.3841 141.025 79.8369 140.995C89.1631 140.381 99.1388 137.016 106.183 130.374V122.415H95.92C94.6539 122.415 93.5657 121.414 93.5069 120.115C93.4449 118.728 94.52 117.586 95.8539 117.586H106.183V109.624C99.178 103.018 89.2027 99.6133 79.8367 99.0017C79.3839 98.972 79 99.3393 79 99.8057ZM131.817 109.626V117.586H142.079C143.344 117.586 144.433 118.584 144.493 119.882C144.558 121.269 143.481 122.415 142.146 122.415H131.817V130.376C138.822 136.982 148.798 140.387 158.163 140.998C158.616 141.028 159 140.661 159 140.194V99.809C159 99.3426 158.616 98.9761 158.163 99.005C148.813 99.6199 138.849 102.993 131.817 109.626ZM110.882 110.681V129.319H127.118V110.681H110.882Z" fill="white"/>
<defs>
<filter id="filter0_d_0_1" x="0" y="0" width="239" height="239" filterUnits="userSpaceOnUse" color-interpolation-filters="sRGB">
<feFlood flood-opacity="0" result="BackgroundImageFix"/>
<feColorMatrix in="SourceAlpha" type="matrix" values="0 0 0 0 0 0 0 0 0 0 0 0 0 0 0 0 0 0 127 0" result="hardAlpha"/>
<feOffset/>
<feGaussianBlur stdDeviation="11.5"/>
<feComposite in2="hardAlpha" operator="out"/>
<feColorMatrix type="matrix" values="0 0 0 0 0.233333 0 0 0 0 0 0 0 0 0 1 0 0 0 1 0"/>
<feBlend mode="normal" in2="BackgroundImageFix" result="effect1_dropShadow_0_1"/>
<feBlend mode="normal" in="SourceGraphic" in2="effect1_dropShadow_0_1" result="shape"/>
</filter>
</defs>
</svg>
