<svg width="955" height="79" viewBox="0 0 955 79" fill="none" xmlns="http://www.w3.org/2000/svg">
<path d="M0 7.37139V76.1363C0 76.9303 0.672109 77.5557 1.46453 77.5048C16.44 76.5462 32.3723 71.6423 44.4198 62.1043C45.7819 61.0259 46.463 60.4867 46.949 59.6041C47.0272 59.4622 47.1164 59.2779 47.1791 59.1285C47.5694 58.1996 47.5694 57.2271 47.5694 55.2821V55.2821C47.5694 51.1358 47.5694 49.0626 46.4152 47.6734C46.2188 47.437 46.001 47.2192 45.7646 47.0228C44.3754 45.8687 42.3023 45.8687 38.156 45.8687H29.6103C27.3949 45.8687 25.4893 44.1649 25.3873 41.9517C25.2785 39.5905 27.1603 37.6453 29.4946 37.6453H38.1537C42.3025 37.6453 44.3768 37.6453 45.7664 36.4899C46.0017 36.2942 46.2186 36.0774 46.4142 35.8421C47.5696 34.4525 47.5696 32.3781 47.5696 28.2294V28.2294C47.5696 26.2836 47.5696 25.3107 47.1789 24.3812C47.1164 24.2325 47.0275 24.0489 46.9497 23.9076C46.4635 23.0243 45.7823 22.4852 44.42 21.4068C32.4271 11.9137 16.4969 6.95808 1.46426 6.00284C0.671836 5.95253 0 6.5776 0 7.37139ZM95.579 21.4096C94.2173 22.4881 93.5364 23.0274 93.0505 23.91C92.9725 24.0517 92.8835 24.2357 92.8208 24.3848C92.4306 25.3138 92.4306 26.2862 92.4306 28.231V28.231C92.4306 32.3782 92.4306 34.4517 93.5852 35.8411C93.7814 36.0771 93.9988 36.2946 94.2349 36.4907C95.6242 37.6453 97.6978 37.6453 101.845 37.6453H110.388C112.602 37.6453 114.507 39.345 114.612 41.5555C114.725 43.9166 112.842 45.8687 110.506 45.8687H101.847C97.6978 45.8687 95.6234 45.8687 94.2339 47.0241C93.9986 47.2197 93.7817 47.4366 93.5861 47.6719C92.4306 49.0615 92.4306 51.1358 92.4306 55.2846V55.2846C92.4306 57.2304 92.4306 58.2033 92.8214 59.1327C92.8839 59.2814 92.9727 59.4651 93.0505 59.6064C93.5368 60.4896 94.218 61.0288 95.5803 62.1072C107.573 71.6003 123.504 76.5559 138.536 77.5111C139.328 77.5614 140 76.9363 140 76.1426V7.37768C140 6.58362 139.328 5.95854 138.535 6.00913C123.523 6.9697 107.607 11.8829 95.579 21.4096ZM65.7927 25.8886C61.0787 25.8886 58.7217 25.8886 57.2572 27.353C55.7927 28.8175 55.7927 31.1745 55.7927 35.8886V47.6254C55.7927 52.3394 55.7927 54.6964 57.2572 56.1609C58.7217 57.6254 61.0787 57.6254 65.7927 57.6254H74.2073C78.9213 57.6254 81.2783 57.6254 82.7428 56.1609C84.2073 54.6964 84.2073 52.3394 84.2073 47.6254V35.8886C84.2073 31.1745 84.2073 28.8175 82.7428 27.353C81.2783 25.8886 78.9213 25.8886 74.2073 25.8886H65.7927Z" fill="white"/>
<path d="M209.2 79C204.333 79 199.867 78.1333 195.8 76.4C191.733 74.6667 188.2 72.2 185.2 69C182.2 65.7333 179.867 61.9 178.2 57.5C176.6 53.1 175.8 48.2667 175.8 43C175.8 38 176.667 33.3667 178.4 29.1C180.2 24.7667 182.667 20.9667 185.8 17.7C188.933 14.4333 192.567 11.9 196.7 10.1C200.833 8.3 205.3 7.4 210.1 7.4C213.5 7.4 216.8 7.93333 220 8.99999C223.267 10 226.2 11.4333 228.8 13.3C231.467 15.1 233.633 17.1667 235.3 19.5L228.1 27C226.167 25.0667 224.2 23.4667 222.2 22.2C220.267 20.8667 218.267 19.8667 216.2 19.2C214.2 18.5333 212.167 18.2 210.1 18.2C206.833 18.2 203.767 18.8333 200.9 20.1C198.1 21.3 195.633 23 193.5 25.2C191.433 27.4 189.8 30.0333 188.6 33.1C187.4 36.1 186.8 39.4 186.8 43C186.8 46.8 187.367 50.2667 188.5 53.4C189.7 56.4667 191.367 59.1 193.5 61.3C195.633 63.5 198.167 65.2 201.1 66.4C204.1 67.5333 207.4 68.1 211 68.1C213.2 68.1 215.367 67.8 217.5 67.2C219.633 66.6 221.633 65.7333 223.5 64.6C225.367 63.4667 227.067 62.1333 228.6 60.6L234 69.4C232.467 71.2 230.367 72.8333 227.7 74.3C225.1 75.7667 222.167 76.9333 218.9 77.8C215.7 78.6 212.467 79 209.2 79ZM269.671 79C264.538 79 259.938 77.8333 255.871 75.5C251.871 73.1 248.704 69.8667 246.371 65.8C244.038 61.6667 242.871 56.9667 242.871 51.7C242.871 46.4333 244.038 41.7667 246.371 37.7C248.704 33.5667 251.871 30.3333 255.871 28C259.938 25.6 264.538 24.4 269.671 24.4C274.738 24.4 279.271 25.6 283.271 28C287.338 30.3333 290.538 33.5667 292.871 37.7C295.204 41.7667 296.371 46.4333 296.371 51.7C296.371 56.9667 295.204 61.6667 292.871 65.8C290.538 69.8667 287.338 73.1 283.271 75.5C279.271 77.8333 274.738 79 269.671 79ZM269.671 69.6C272.804 69.6 275.604 68.8333 278.071 67.3C280.538 65.7 282.471 63.5667 283.871 60.9C285.271 58.1667 285.938 55.1 285.871 51.7C285.938 48.2333 285.271 45.1667 283.871 42.5C282.471 39.7667 280.538 37.6333 278.071 36.1C275.604 34.5667 272.804 33.8 269.671 33.8C266.538 33.8 263.704 34.6 261.171 36.2C258.704 37.7333 256.771 39.8667 255.371 42.6C253.971 45.2667 253.304 48.3 253.371 51.7C253.304 55.1 253.971 58.1667 255.371 60.9C256.771 63.5667 258.704 65.7 261.171 67.3C263.704 68.8333 266.538 69.6 269.671 69.6ZM307.595 78V25.5H317.895V36.3L316.095 37.5C316.761 35.1667 318.061 33.0333 319.995 31.1C321.928 29.1 324.228 27.5 326.895 26.3C329.561 25.0333 332.295 24.4 335.095 24.4C339.095 24.4 342.428 25.2 345.095 26.8C347.761 28.3333 349.761 30.7 351.095 33.9C352.428 37.1 353.095 41.1333 353.095 46V78H342.795V46.7C342.795 43.7 342.395 41.2333 341.595 39.3C340.795 37.3 339.561 35.8667 337.895 35C336.228 34.0667 334.161 33.6667 331.695 33.8C329.695 33.8 327.861 34.1333 326.195 34.8C324.528 35.4 323.061 36.2667 321.795 37.4C320.595 38.5333 319.628 39.8667 318.895 41.4C318.228 42.8667 317.895 44.4667 317.895 46.2V78H312.795C311.928 78 311.061 78 310.195 78C309.328 78 308.461 78 307.595 78ZM372.767 78V19.6C372.767 16.6 373.434 13.9333 374.767 11.6C376.101 9.26666 377.934 7.43333 380.267 6.1C382.601 4.76666 385.301 4.1 388.367 4.1C390.501 4.1 392.501 4.5 394.367 5.29999C396.234 6.1 397.734 7.16666 398.867 8.49999L395.367 16.4C394.501 15.6 393.534 14.9667 392.467 14.5C391.467 13.9667 390.501 13.7 389.567 13.7C388.167 13.7 386.967 13.9333 385.967 14.4C385.034 14.8 384.334 15.4667 383.867 16.4C383.401 17.2667 383.167 18.3333 383.167 19.6V78H377.967C377.101 78 376.234 78 375.367 78C374.501 78 373.634 78 372.767 78ZM364.367 35.9V26.4H395.567V35.9H364.367ZM408.067 78V25.5H418.367V78H408.067ZM413.067 13.9C410.867 13.9 409.167 13.3333 407.967 12.2C406.767 11.0667 406.167 9.46666 406.167 7.4C406.167 5.46666 406.767 3.9 407.967 2.7C409.234 1.5 410.934 0.899997 413.067 0.899997C415.267 0.899997 416.967 1.46666 418.167 2.6C419.367 3.73333 419.967 5.33333 419.967 7.4C419.967 9.33333 419.334 10.9 418.067 12.1C416.867 13.3 415.201 13.9 413.067 13.9ZM456.057 79C451.257 79 446.957 77.8333 443.157 75.5C439.424 73.1 436.457 69.8667 434.257 65.8C432.057 61.6667 430.957 56.9667 430.957 51.7C430.957 46.4333 432.024 41.7667 434.157 37.7C436.357 33.5667 439.324 30.3333 443.057 28C446.79 25.6 451.024 24.4 455.757 24.4C458.357 24.4 460.857 24.8333 463.257 25.7C465.724 26.5 467.924 27.6333 469.857 29.1C471.79 30.5 473.29 32.0667 474.357 33.8C475.49 35.4667 476.057 37.1667 476.057 38.9L473.057 39.1V4H483.357V78H473.057V65.5H475.057C475.057 67.1 474.524 68.7 473.457 70.3C472.39 71.8333 470.957 73.2667 469.157 74.6C467.424 75.9333 465.39 77 463.057 77.8C460.79 78.6 458.457 79 456.057 79ZM457.457 70.1C460.59 70.1 463.357 69.3 465.757 67.7C468.157 66.1 470.024 63.9333 471.357 61.2C472.757 58.4 473.457 55.2333 473.457 51.7C473.457 48.1667 472.757 45.0333 471.357 42.3C470.024 39.5 468.157 37.3 465.757 35.7C463.357 34.1 460.59 33.3 457.457 33.3C454.324 33.3 451.557 34.1 449.157 35.7C446.757 37.3 444.857 39.5 443.457 42.3C442.124 45.0333 441.457 48.1667 441.457 51.7C441.457 55.2333 442.124 58.4 443.457 61.2C444.857 63.9333 446.757 66.1 449.157 67.7C451.557 69.3 454.324 70.1 457.457 70.1ZM522.036 79C516.636 79 511.836 77.8667 507.636 75.6C503.503 73.2667 500.236 70.1 497.836 66.1C495.503 62.1 494.336 57.5 494.336 52.3C494.336 48.1667 495.003 44.4 496.336 41C497.669 37.6 499.503 34.6667 501.836 32.2C504.236 29.6667 507.069 27.7333 510.336 26.4C513.669 25 517.269 24.3 521.136 24.3C524.536 24.3 527.703 24.9667 530.636 26.3C533.569 27.5667 536.103 29.3333 538.236 31.6C540.436 33.8667 542.103 36.5667 543.236 39.7C544.436 42.7667 545.003 46.1333 544.936 49.8L544.836 54.2H501.936L499.636 46H535.936L534.436 47.7V45.3C534.236 43.1 533.503 41.1333 532.236 39.4C530.969 37.6667 529.369 36.3 527.436 35.3C525.503 34.3 523.403 33.8 521.136 33.8C517.536 33.8 514.503 34.5 512.036 35.9C509.569 37.2333 507.703 39.2333 506.436 41.9C505.169 44.5 504.536 47.7333 504.536 51.6C504.536 55.2667 505.303 58.4667 506.836 61.2C508.369 63.8667 510.536 65.9333 513.336 67.4C516.136 68.8667 519.369 69.6 523.036 69.6C525.636 69.6 528.036 69.1667 530.236 68.3C532.503 67.4333 534.936 65.8667 537.536 63.6L542.736 70.9C541.136 72.5 539.169 73.9 536.836 75.1C534.569 76.3 532.136 77.2667 529.536 78C527.003 78.6667 524.503 79 522.036 79ZM556.13 78V25.5H566.43V36.3L564.63 37.5C565.296 35.1667 566.596 33.0333 568.53 31.1C570.463 29.1 572.763 27.5 575.43 26.3C578.096 25.0333 580.83 24.4 583.63 24.4C587.63 24.4 590.963 25.2 593.63 26.8C596.296 28.3333 598.296 30.7 599.63 33.9C600.963 37.1 601.63 41.1333 601.63 46V78H591.33V46.7C591.33 43.7 590.93 41.2333 590.13 39.3C589.33 37.3 588.096 35.8667 586.43 35C584.763 34.0667 582.696 33.6667 580.23 33.8C578.23 33.8 576.396 34.1333 574.73 34.8C573.063 35.4 571.596 36.2667 570.33 37.4C569.13 38.5333 568.163 39.8667 567.43 41.4C566.763 42.8667 566.43 44.4667 566.43 46.2V78H561.33C560.463 78 559.596 78 558.73 78C557.863 78 556.996 78 556.13 78ZM622.102 78V12.1H632.402V78H622.102ZM611.202 35.5V25.5H644.602V35.5H611.202ZM677.309 78L704.409 8H715.409L742.309 78H730.809L714.809 35.8C714.609 35.3333 714.209 34.2 713.609 32.4C713.075 30.6 712.442 28.6 711.709 26.4C710.975 24.2 710.309 22.2 709.709 20.4C709.109 18.5333 708.709 17.3333 708.509 16.8L710.809 16.7C710.409 17.8333 709.909 19.2667 709.309 21C708.775 22.7333 708.175 24.5667 707.509 26.5C706.909 28.4333 706.309 30.2667 705.709 32C705.109 33.6667 704.609 35.0667 704.209 36.2L688.309 78H677.309ZM689.309 60.6L693.309 50.2H725.109L729.709 60.6H689.309ZM752.028 78V68H763.328V18H752.028V8H785.428V18H774.128V68H785.428V78H752.028Z" fill="white"/>
<path d="M842.9 78V43H856.6C859.1 43 861.35 43.4167 863.35 44.25C865.383 45.0833 867.117 46.2833 868.55 47.85C869.983 49.4167 871.083 51.2667 871.85 53.4C872.617 55.5333 873 57.9 873 60.5C873 63.1 872.617 65.4833 871.85 67.65C871.083 69.7833 869.983 71.6333 868.55 73.2C867.15 74.7333 865.433 75.9167 863.4 76.75C861.367 77.5833 859.1 78 856.6 78H842.9ZM848.3 73.35L848.15 72.8H856.35C858.117 72.8 859.683 72.5167 861.05 71.95C862.45 71.3833 863.617 70.5833 864.55 69.55C865.517 68.4833 866.25 67.1833 866.75 65.65C867.25 64.1167 867.5 62.4 867.5 60.5C867.5 58.6 867.25 56.9 866.75 55.4C866.25 53.8667 865.517 52.5667 864.55 51.5C863.583 50.4333 862.417 49.6167 861.05 49.05C859.683 48.4833 858.117 48.2 856.35 48.2H848L848.3 47.75V73.35ZM890.802 78.5C888.236 78.5 885.936 77.9167 883.902 76.75C881.902 75.55 880.319 73.9333 879.152 71.9C877.986 69.8333 877.402 67.4833 877.402 64.85C877.402 62.2167 877.986 59.8833 879.152 57.85C880.319 55.7833 881.902 54.1667 883.902 53C885.936 51.8 888.236 51.2 890.802 51.2C893.336 51.2 895.602 51.8 897.602 53C899.636 54.1667 901.236 55.7833 902.402 57.85C903.569 59.8833 904.152 62.2167 904.152 64.85C904.152 67.4833 903.569 69.8333 902.402 71.9C901.236 73.9333 899.636 75.55 897.602 76.75C895.602 77.9167 893.336 78.5 890.802 78.5ZM890.802 73.8C892.369 73.8 893.769 73.4167 895.002 72.65C896.236 71.85 897.202 70.7833 897.902 69.45C898.602 68.0833 898.936 66.55 898.902 64.85C898.936 63.1167 898.602 61.5833 897.902 60.25C897.202 58.8833 896.236 57.8167 895.002 57.05C893.769 56.2833 892.369 55.9 890.802 55.9C889.236 55.9 887.819 56.3 886.552 57.1C885.319 57.8667 884.352 58.9333 883.652 60.3C882.952 61.6333 882.619 63.15 882.652 64.85C882.619 66.55 882.952 68.0833 883.652 69.45C884.352 70.7833 885.319 71.85 886.552 72.65C887.819 73.4167 889.236 73.8 890.802 73.8ZM920.914 78.5C918.481 78.5 916.297 77.9 914.364 76.7C912.464 75.5 910.947 73.8667 909.814 71.8C908.714 69.7333 908.164 67.4167 908.164 64.85C908.164 62.2833 908.714 59.9667 909.814 57.9C910.947 55.8333 912.464 54.2 914.364 53C916.297 51.8 918.481 51.2 920.914 51.2C923.247 51.2 925.364 51.6833 927.264 52.65C929.197 53.5833 930.664 54.8667 931.664 56.5L928.814 60C928.281 59.2333 927.597 58.5333 926.764 57.9C925.931 57.2667 925.047 56.7667 924.114 56.4C923.181 56.0333 922.281 55.85 921.414 55.85C919.814 55.85 918.381 56.25 917.114 57.05C915.881 57.8167 914.897 58.8833 914.164 60.25C913.431 61.6167 913.064 63.15 913.064 64.85C913.064 66.55 913.447 68.0833 914.214 69.45C914.981 70.7833 915.997 71.85 917.264 72.65C918.531 73.45 919.931 73.85 921.464 73.85C922.364 73.85 923.231 73.7 924.064 73.4C924.931 73.1 925.764 72.65 926.564 72.05C927.364 71.45 928.114 70.7167 928.814 69.85L931.664 73.35C930.597 74.85 929.064 76.0833 927.064 77.05C925.097 78.0167 923.047 78.5 920.914 78.5ZM945.272 78.5C943.072 78.5 941.089 78.1167 939.322 77.35C937.555 76.5833 936.089 75.45 934.922 73.95L938.422 70.95C939.422 72.1167 940.505 72.9667 941.672 73.5C942.872 74 944.222 74.25 945.722 74.25C946.322 74.25 946.872 74.1833 947.372 74.05C947.905 73.8833 948.355 73.65 948.722 73.35C949.122 73.05 949.422 72.7 949.622 72.3C949.822 71.8667 949.922 71.4 949.922 70.9C949.922 70.0333 949.605 69.3333 948.972 68.8C948.639 68.5667 948.105 68.3167 947.372 68.05C946.672 67.75 945.755 67.45 944.622 67.15C942.689 66.65 941.105 66.0833 939.872 65.45C938.639 64.8167 937.689 64.1 937.022 63.3C936.522 62.6667 936.155 61.9833 935.922 61.25C935.689 60.4833 935.572 59.65 935.572 58.75C935.572 57.65 935.805 56.65 936.272 55.75C936.772 54.8167 937.439 54.0167 938.272 53.35C939.139 52.65 940.139 52.1167 941.272 51.75C942.439 51.3833 943.672 51.2 944.972 51.2C946.205 51.2 947.422 51.3667 948.622 51.7C949.855 52.0333 950.989 52.5167 952.022 53.15C953.055 53.7833 953.922 54.5333 954.622 55.4L951.672 58.65C951.039 58.0167 950.339 57.4667 949.572 57C948.839 56.5 948.089 56.1167 947.322 55.85C946.555 55.5833 945.855 55.45 945.222 55.45C944.522 55.45 943.889 55.5167 943.322 55.65C942.755 55.7833 942.272 55.9833 941.872 56.25C941.505 56.5167 941.222 56.85 941.022 57.25C940.822 57.65 940.722 58.1 940.722 58.6C940.755 59.0333 940.855 59.45 941.022 59.85C941.222 60.2167 941.489 60.5333 941.822 60.8C942.189 61.0667 942.739 61.35 943.472 61.65C944.205 61.95 945.139 62.2333 946.272 62.5C947.939 62.9333 949.305 63.4167 950.372 63.95C951.472 64.45 952.339 65.0333 952.972 65.7C953.639 66.3333 954.105 67.0667 954.372 67.9C954.639 68.7333 954.772 69.6667 954.772 70.7C954.772 72.2 954.339 73.55 953.472 74.75C952.639 75.9167 951.505 76.8333 950.072 77.5C948.639 78.1667 947.039 78.5 945.272 78.5Z" fill="white"/>
</svg>
