<svg width="849" height="138" viewBox="0 0 849 138" fill="none" xmlns="http://www.w3.org/2000/svg">
<path d="M0 35.1056V102.888C0 103.671 0.662508 104.287 1.44361 104.237C17.5314 103.207 34.7393 97.5585 46.8898 86.4115V73.0529H29.1873C27.0035 73.0529 25.1252 71.3735 25.0246 69.1919C24.9174 66.8645 26.7723 64.9471 29.0733 64.9471H46.8901V51.5859C34.8075 40.4976 17.5996 34.7833 1.44334 33.7566C0.662238 33.707 0 34.3232 0 35.1056ZM91.1102 51.5886V64.9471H108.811C110.993 64.9471 112.871 66.6225 112.975 68.8014C113.086 71.1288 111.23 73.0529 108.927 73.0529H91.1102V86.4142C103.193 97.5024 120.401 103.217 136.557 104.243C137.338 104.293 138 103.677 138 102.894V35.1118C138 34.3291 137.337 33.713 136.556 33.7628C120.427 34.7949 103.24 40.4556 91.1102 51.5886ZM54.9957 53.3583V84.6417H83.0043V53.3583H54.9957Z" fill="#000713"/>
<path d="M215.432 97.84C211.12 97.84 207.144 97.112 203.504 95.656C199.92 94.144 196.784 92.044 194.096 89.356C191.464 86.612 189.42 83.392 187.964 79.696C186.508 75.944 185.78 71.856 185.78 67.432C185.78 63.12 186.536 59.144 188.048 55.504C189.56 51.808 191.688 48.616 194.432 45.928C197.176 43.184 200.396 41.056 204.092 39.544C207.788 38.032 211.792 37.276 216.104 37.276C218.904 37.276 221.648 37.668 224.336 38.452C227.08 39.18 229.572 40.272 231.812 41.728C234.108 43.184 236.068 44.92 237.692 46.936L229.796 55.672C228.452 54.328 227.052 53.18 225.596 52.228C224.196 51.22 222.684 50.464 221.06 49.96C219.492 49.4 217.812 49.12 216.02 49.12C213.612 49.12 211.344 49.568 209.216 50.464C207.144 51.36 205.324 52.62 203.756 54.244C202.188 55.812 200.928 57.744 199.976 60.04C199.08 62.28 198.632 64.772 198.632 67.516C198.632 70.316 199.08 72.864 199.976 75.16C200.872 77.4 202.132 79.332 203.756 80.956C205.38 82.524 207.312 83.756 209.552 84.652C211.848 85.492 214.368 85.912 217.112 85.912C218.904 85.912 220.64 85.66 222.32 85.156C224 84.652 225.54 83.952 226.94 83.056C228.396 82.16 229.684 81.124 230.804 79.948L236.936 89.776C235.592 91.288 233.772 92.66 231.476 93.892C229.236 95.124 226.716 96.104 223.916 96.832C221.116 97.504 218.288 97.84 215.432 97.84ZM266.542 97.84C262.006 97.84 257.946 96.86 254.362 94.9C250.834 92.884 248.034 90.14 245.962 86.668C243.946 83.196 242.938 79.22 242.938 74.74C242.938 70.26 243.946 66.312 245.962 62.896C248.034 59.424 250.834 56.68 254.362 54.664C257.946 52.648 262.006 51.64 266.542 51.64C271.022 51.64 275.026 52.648 278.554 54.664C282.138 56.68 284.938 59.424 286.954 62.896C288.97 66.312 289.978 70.26 289.978 74.74C289.978 79.22 288.97 83.196 286.954 86.668C284.938 90.14 282.138 92.884 278.554 94.9C275.026 96.86 271.022 97.84 266.542 97.84ZM266.542 87.424C268.726 87.424 270.686 86.892 272.422 85.828C274.158 84.708 275.502 83.196 276.454 81.292C277.462 79.332 277.966 77.148 277.966 74.74C277.966 72.276 277.462 70.092 276.454 68.188C275.502 66.228 274.158 64.716 272.422 63.652C270.686 62.532 268.726 61.972 266.542 61.972C264.302 61.972 262.314 62.532 260.578 63.652C258.842 64.772 257.47 66.284 256.462 68.188C255.454 70.092 254.978 72.276 255.034 74.74C254.978 77.148 255.454 79.332 256.462 81.292C257.47 83.196 258.842 84.708 260.578 85.828C262.314 86.892 264.302 87.424 266.542 87.424ZM298.952 97V52.564H310.376L310.712 61.636L308.36 62.644C308.976 60.628 310.068 58.808 311.636 57.184C313.26 55.504 315.192 54.16 317.432 53.152C319.672 52.144 322.024 51.64 324.488 51.64C327.848 51.64 330.648 52.312 332.888 53.656C335.184 55 336.892 57.044 338.012 59.788C339.188 62.476 339.776 65.808 339.776 69.784V97H327.848V70.708C327.848 68.692 327.568 67.012 327.008 65.668C326.448 64.324 325.58 63.344 324.404 62.728C323.284 62.056 321.884 61.776 320.204 61.888C318.86 61.888 317.6 62.112 316.424 62.56C315.304 62.952 314.324 63.54 313.484 64.324C312.7 65.108 312.056 66.004 311.552 67.012C311.104 68.02 310.88 69.112 310.88 70.288V97H305C303.712 97 302.564 97 301.556 97C300.548 97 299.68 97 298.952 97ZM354.65 97V49.456C354.65 46.712 355.266 44.22 356.498 41.98C357.73 39.74 359.41 37.976 361.538 36.688C363.722 35.4 366.27 34.756 369.182 34.756C371.142 34.756 372.99 35.092 374.726 35.764C376.462 36.38 377.946 37.248 379.178 38.368L375.65 47.104C374.922 46.656 374.166 46.292 373.382 46.012C372.654 45.676 371.982 45.508 371.366 45.508C370.302 45.508 369.406 45.704 368.678 46.096C368.006 46.432 367.502 46.964 367.166 47.692C366.83 48.364 366.662 49.232 366.662 50.296V97H360.698C359.41 97 358.262 97 357.254 97C356.246 97 355.378 97 354.65 97ZM348.014 63.736V53.656H376.238V63.736H348.014ZM385.226 97V52.564H397.154V97H385.226ZM391.106 43.408C388.81 43.408 387.018 42.848 385.73 41.728C384.442 40.608 383.798 39.012 383.798 36.94C383.798 35.036 384.442 33.496 385.73 32.32C387.074 31.088 388.866 30.472 391.106 30.472C393.402 30.472 395.194 31.06 396.482 32.236C397.77 33.356 398.414 34.924 398.414 36.94C398.414 38.9 397.742 40.468 396.398 41.644C395.11 42.82 393.346 43.408 391.106 43.408ZM427.329 97.84C423.465 97.84 419.993 96.86 416.913 94.9C413.833 92.884 411.397 90.168 409.605 86.752C407.869 83.28 407.001 79.276 407.001 74.74C407.001 70.316 407.869 66.368 409.605 62.896C411.397 59.424 413.805 56.68 416.829 54.664C419.909 52.648 423.409 51.64 427.329 51.64C429.401 51.64 431.389 51.976 433.293 52.648C435.253 53.264 436.989 54.132 438.501 55.252C440.069 56.372 441.329 57.632 442.281 59.032C443.233 60.376 443.765 61.804 443.877 63.316L440.853 63.82V34.84H452.781V97H441.525L441.021 86.752L443.373 87.004C443.261 88.404 442.757 89.748 441.861 91.036C440.965 92.324 439.761 93.5 438.249 94.564C436.793 95.572 435.113 96.384 433.209 97C431.361 97.56 429.401 97.84 427.329 97.84ZM430.017 87.928C432.257 87.928 434.217 87.368 435.897 86.248C437.577 85.128 438.893 83.588 439.845 81.628C440.797 79.668 441.273 77.372 441.273 74.74C441.273 72.164 440.797 69.896 439.845 67.936C438.893 65.92 437.577 64.38 435.897 63.316C434.217 62.196 432.257 61.636 430.017 61.636C427.777 61.636 425.817 62.196 424.137 63.316C422.513 64.38 421.225 65.92 420.273 67.936C419.377 69.896 418.929 72.164 418.929 74.74C418.929 77.372 419.377 79.668 420.273 81.628C421.225 83.588 422.513 85.128 424.137 86.248C425.817 87.368 427.777 87.928 430.017 87.928ZM485.493 97.84C480.677 97.84 476.477 96.86 472.893 94.9C469.309 92.94 466.509 90.252 464.493 86.836C462.477 83.42 461.469 79.5 461.469 75.076C461.469 71.66 462.029 68.524 463.149 65.668C464.269 62.812 465.837 60.348 467.853 58.276C469.869 56.148 472.249 54.524 474.993 53.404C477.793 52.228 480.817 51.64 484.065 51.64C487.089 51.64 489.889 52.2 492.465 53.32C495.041 54.384 497.253 55.924 499.101 57.94C501.005 59.9 502.461 62.224 503.469 64.912C504.477 67.6 504.925 70.54 504.813 73.732L504.729 77.428H469.029L467.097 70.12H494.901L493.557 71.632V69.784C493.445 68.272 492.941 66.9 492.045 65.668C491.205 64.436 490.113 63.484 488.769 62.812C487.425 62.14 485.913 61.804 484.233 61.804C481.769 61.804 479.669 62.28 477.933 63.232C476.253 64.184 474.965 65.584 474.069 67.432C473.173 69.28 472.725 71.52 472.725 74.152C472.725 76.84 473.285 79.164 474.405 81.124C475.581 83.084 477.205 84.624 479.277 85.744C481.405 86.808 483.897 87.34 486.753 87.34C488.713 87.34 490.505 87.032 492.129 86.416C493.753 85.8 495.489 84.736 497.337 83.224L503.049 91.204C501.425 92.66 499.633 93.892 497.673 94.9C495.713 95.852 493.697 96.58 491.625 97.084C489.553 97.588 487.509 97.84 485.493 97.84ZM513.628 97V52.564H525.052L525.388 61.636L523.036 62.644C523.652 60.628 524.744 58.808 526.312 57.184C527.936 55.504 529.868 54.16 532.108 53.152C534.348 52.144 536.7 51.64 539.164 51.64C542.524 51.64 545.324 52.312 547.564 53.656C549.86 55 551.568 57.044 552.688 59.788C553.864 62.476 554.452 65.808 554.452 69.784V97H542.524V70.708C542.524 68.692 542.244 67.012 541.684 65.668C541.124 64.324 540.256 63.344 539.08 62.728C537.96 62.056 536.56 61.776 534.88 61.888C533.536 61.888 532.276 62.112 531.1 62.56C529.98 62.952 529 63.54 528.16 64.324C527.376 65.108 526.732 66.004 526.228 67.012C525.78 68.02 525.556 69.112 525.556 70.288V97H519.676C518.388 97 517.24 97 516.232 97C515.224 97 514.356 97 513.628 97ZM570.166 97V41.308H582.094V97H570.166ZM561.85 63.232V52.564H591.166V63.232H561.85ZM619.406 97L642.422 38.2H653.678L676.61 97H663.674L651.83 65.332C651.494 64.436 651.074 63.288 650.57 61.888C650.122 60.488 649.646 59.004 649.142 57.436C648.638 55.868 648.162 54.384 647.714 52.984C647.266 51.528 646.93 50.324 646.706 49.372L648.974 49.288C648.638 50.576 648.246 51.92 647.798 53.32C647.406 54.664 646.986 56.064 646.538 57.52C646.09 58.92 645.614 60.292 645.11 61.636C644.606 62.98 644.13 64.296 643.682 65.584L631.838 97H619.406ZM630.074 84.652L634.19 74.488H661.154L665.354 84.652H630.074ZM683.355 97V86.164H693.183V49.036H683.355V38.2H715.611V49.036H705.783V86.164H715.611V97H683.355ZM751.345 97V67.6H763.399C765.555 67.6 767.501 67.964 769.237 68.692C771.001 69.392 772.513 70.4 773.773 71.716C775.061 73.004 776.041 74.544 776.713 76.336C777.385 78.128 777.721 80.116 777.721 82.3C777.721 84.456 777.385 86.444 776.713 88.264C776.041 90.056 775.075 91.61 773.815 92.926C772.555 94.214 771.043 95.222 769.279 95.95C767.515 96.65 765.555 97 763.399 97H751.345ZM757.645 92.422L756.973 91.33H763.189C764.449 91.33 765.583 91.12 766.591 90.7C767.599 90.252 768.453 89.65 769.153 88.894C769.881 88.11 770.427 87.158 770.791 86.038C771.155 84.918 771.337 83.672 771.337 82.3C771.337 80.928 771.155 79.696 770.791 78.604C770.427 77.484 769.881 76.532 769.153 75.748C768.453 74.964 767.599 74.362 766.591 73.942C765.583 73.494 764.449 73.27 763.189 73.27H756.847L757.645 72.262V92.422ZM792.912 97.42C790.644 97.42 788.614 96.93 786.822 95.95C785.058 94.942 783.658 93.57 782.622 91.834C781.614 90.098 781.11 88.11 781.11 85.87C781.11 83.63 781.614 81.656 782.622 79.948C783.658 78.212 785.058 76.84 786.822 75.832C788.614 74.824 790.644 74.32 792.912 74.32C795.152 74.32 797.154 74.824 798.918 75.832C800.71 76.84 802.11 78.212 803.118 79.948C804.126 81.656 804.63 83.63 804.63 85.87C804.63 88.11 804.126 90.098 803.118 91.834C802.11 93.57 800.71 94.942 798.918 95.95C797.154 96.93 795.152 97.42 792.912 97.42ZM792.912 92.212C794.004 92.212 794.984 91.946 795.852 91.414C796.72 90.854 797.392 90.098 797.868 89.146C798.372 88.166 798.624 87.074 798.624 85.87C798.624 84.638 798.372 83.546 797.868 82.594C797.392 81.614 796.72 80.858 795.852 80.326C794.984 79.766 794.004 79.486 792.912 79.486C791.792 79.486 790.798 79.766 789.93 80.326C789.062 80.886 788.376 81.642 787.872 82.594C787.368 83.546 787.13 84.638 787.158 85.87C787.13 87.074 787.368 88.166 787.872 89.146C788.376 90.098 789.062 90.854 789.93 91.414C790.798 91.946 791.792 92.212 792.912 92.212ZM818.777 97.42C816.649 97.42 814.745 96.916 813.065 95.908C811.385 94.9 810.055 93.528 809.075 91.792C808.123 90.056 807.647 88.082 807.647 85.87C807.647 83.686 808.123 81.726 809.075 79.99C810.055 78.226 811.385 76.84 813.065 75.832C814.745 74.824 816.649 74.32 818.777 74.32C820.765 74.32 822.585 74.684 824.237 75.412C825.889 76.14 827.177 77.148 828.101 78.436L824.825 82.384C824.433 81.852 823.943 81.376 823.355 80.956C822.767 80.508 822.123 80.158 821.423 79.906C820.751 79.654 820.051 79.528 819.323 79.528C818.175 79.528 817.153 79.808 816.257 80.368C815.389 80.9 814.703 81.642 814.199 82.594C813.695 83.546 813.443 84.638 813.443 85.87C813.443 87.074 813.695 88.152 814.199 89.104C814.731 90.028 815.445 90.784 816.341 91.372C817.237 91.932 818.245 92.212 819.365 92.212C820.093 92.212 820.779 92.114 821.423 91.918C822.067 91.694 822.669 91.372 823.229 90.952C823.817 90.532 824.349 90.028 824.825 89.44L828.059 93.388C827.107 94.592 825.791 95.572 824.111 96.328C822.431 97.056 820.653 97.42 818.777 97.42ZM839.356 97.42C837.284 97.42 835.436 97.084 833.812 96.412C832.216 95.712 830.928 94.76 829.948 93.556L833.644 90.364C834.512 91.288 835.478 91.96 836.542 92.38C837.606 92.772 838.67 92.968 839.734 92.968C840.154 92.968 840.532 92.926 840.868 92.842C841.232 92.73 841.54 92.59 841.792 92.422C842.044 92.226 842.226 92.002 842.338 91.75C842.478 91.47 842.548 91.176 842.548 90.868C842.548 90.252 842.296 89.762 841.792 89.398C841.512 89.258 841.078 89.09 840.49 88.894C839.902 88.67 839.146 88.432 838.222 88.18C836.794 87.816 835.576 87.396 834.568 86.92C833.588 86.416 832.804 85.856 832.216 85.24C831.712 84.652 831.32 84.022 831.04 83.35C830.788 82.65 830.662 81.88 830.662 81.04C830.662 80.032 830.886 79.122 831.334 78.31C831.782 77.47 832.398 76.756 833.182 76.168C833.994 75.58 834.918 75.132 835.954 74.824C836.99 74.488 838.082 74.32 839.23 74.32C840.378 74.32 841.498 74.46 842.59 74.74C843.682 75.02 844.69 75.426 845.614 75.958C846.566 76.462 847.392 77.064 848.092 77.764L844.9 81.292C844.396 80.816 843.822 80.382 843.178 79.99C842.562 79.598 841.918 79.29 841.246 79.066C840.574 78.842 839.972 78.73 839.44 78.73C838.964 78.73 838.53 78.772 838.138 78.856C837.774 78.94 837.466 79.066 837.214 79.234C836.962 79.402 836.766 79.626 836.626 79.906C836.514 80.158 836.458 80.438 836.458 80.746C836.458 81.054 836.528 81.348 836.668 81.628C836.836 81.908 837.06 82.146 837.34 82.342C837.648 82.51 838.096 82.706 838.684 82.93C839.3 83.154 840.126 83.406 841.162 83.686C842.506 84.05 843.64 84.456 844.564 84.904C845.516 85.352 846.272 85.87 846.832 86.458C847.308 86.962 847.658 87.536 847.882 88.18C848.106 88.824 848.218 89.538 848.218 90.322C848.218 91.694 847.826 92.926 847.042 94.018C846.286 95.082 845.236 95.922 843.892 96.538C842.548 97.126 841.036 97.42 839.356 97.42Z" fill="#000713"/>
</svg>
