<svg width="212" height="51" viewBox="0 0 212 51" fill="none" xmlns="http://www.w3.org/2000/svg">
<path d="M6.71369 40.823L10.2197 31.4767L13.502 40.8972H6.71369V40.823ZM16.9334 50.3178H20.1411L11.7863 27.6936H8.65321L0 50.3178H3.20765L5.74394 43.3451H14.3971L16.9334 50.3178ZM32.0765 45.4962C32.0765 47.3507 30.5846 48.315 27.9737 48.315C25.885 48.315 24.5423 47.7216 23.7217 46.3864L20.6633 46.9056C21.8568 49.3535 24.3185 50.4661 27.8245 50.4661C32.5987 50.4661 35.0604 47.8699 35.0604 45.0512C35.0604 41.4906 31.7036 40.5263 27.8991 39.7104C26.0342 39.3395 23.8709 38.6719 23.8709 37.04C23.8709 35.8531 24.9899 34.5179 27.3024 34.5179C29.6149 34.5179 31.0322 36.0757 31.256 36.7433L33.9415 35.6306C32.6733 33.2569 30.2116 32.3668 27.6753 32.3668C23.6471 32.3668 21.0362 34.2954 21.0362 37.4109C21.0362 40.9714 24.0947 41.639 27.0786 42.3066C29.6149 42.9742 32.0765 43.5676 32.0765 45.4962ZM41.4757 27.6936L38.4918 28.9546V33.1086H35.7318V35.4823H38.4918V46.5347C38.4173 48.7601 38.4173 50.392 41.8487 50.392C42.9676 50.392 44.1612 50.1694 44.6834 50.0952V47.7957C44.0866 47.9441 43.3406 48.1666 42.8185 48.1666C41.5503 48.1666 41.5503 47.2765 41.5503 45.2737V35.4823H44.6834V33.1086H41.5503V27.6936H41.4757ZM47.2197 33.1086V50.3178H50.1289V42.3808C50.1289 40.8972 50.0543 39.1911 50.8749 37.9301C51.8446 36.3724 53.1874 35.8531 56.0966 35.779V32.8119C54.9031 32.886 51.8446 32.886 50.2035 36.1499V33.1086H47.2197ZM73.1793 27.6936V30.5124H86.1591L73.2539 47.4249V50.392H89.8889V47.6474H76.6853L89.5905 30.5865V27.7678H73.1793V27.6936ZM108.09 33.1086V50.3178H111V40.5263C111 39.2653 111 37.9301 112.268 36.6691C113.163 35.779 114.282 35.3339 115.55 35.3339C117.117 35.3339 118.758 36.0757 119.28 37.7076C119.429 38.301 119.429 38.8202 119.429 40.5263V50.2436H122.338V40.1554C122.338 38.6719 122.338 37.6334 122.04 36.6691C121.219 33.8503 118.534 32.7377 116.371 32.7377C115.326 32.7377 112.566 32.9602 111 35.779V33.1827H108.09V33.1086ZM153.147 46.1638C152.55 47.3507 151.431 48.3892 149.119 48.3892C147.179 48.3892 143.897 47.2023 143.897 41.4906C143.897 39.9329 144.195 34.5921 148.969 34.5921C151.357 34.5921 152.475 35.9273 152.998 37.04L155.683 35.9273C154.042 33.1827 150.984 32.5151 148.82 32.5151C143.3 32.5151 140.615 36.8916 140.615 41.7874C140.615 46.0155 142.927 50.6887 149.044 50.6887C152.55 50.6887 154.564 48.9826 155.609 47.2765L153.147 46.1638ZM94.0663 39.9329H103.242C103.018 35.4081 100.407 34.6663 98.6167 34.6663C96.155 34.6663 94.4393 36.4466 94.0663 39.9329ZM105.629 47.054C104.659 48.76 102.72 50.6145 98.9897 50.6145C93.9171 50.6145 90.9333 47.2023 90.9333 41.4165C90.9333 34.963 95.1853 32.5151 98.8405 32.5151C102.048 32.5151 105.032 34.2954 106.076 38.5977C106.375 40.0813 106.375 41.3423 106.375 42.0841H93.9917C93.9171 44.977 95.1107 48.6117 99.2135 48.5375C100.855 48.5375 102.048 47.7216 102.794 46.6089L105.629 47.054ZM127.113 39.9329H136.288C136.064 35.4081 133.453 34.6663 131.663 34.6663C129.127 34.6663 127.411 36.4466 127.113 39.9329ZM138.6 47.054C137.631 48.76 135.691 50.6145 131.961 50.6145C126.889 50.6145 123.905 47.2023 123.905 41.4165C123.905 34.963 128.157 32.5151 131.812 32.5151C135.02 32.5151 138.004 34.2954 139.048 38.5977C139.346 40.0813 139.346 41.3423 139.346 42.0841H126.889C126.814 44.977 128.008 48.6117 132.111 48.5375C133.752 48.5375 134.945 47.7216 135.691 46.6089L138.6 47.054ZM171.647 50.3178H168.588C168.588 50.3178 168.29 49.1309 168.215 47.7957C167.32 48.6859 165.679 50.5403 162.397 50.5403C159.04 50.5403 156.578 48.5375 156.578 45.6446C156.578 44.7545 156.802 43.7901 157.324 43.0484C158.294 41.5648 160.159 40.4522 165.306 40.0071L168.066 39.7846V39.3395C168.066 37.5592 168.066 34.5921 164.187 34.5921C161.8 34.5921 160.905 35.779 160.681 36.8174L157.996 35.7048C158.07 35.6306 158.07 35.4823 158.145 35.4081C159.189 33.5536 161.203 32.3668 164.113 32.3668C165.679 32.3668 167.768 32.7377 169.111 33.8503C171.05 35.3339 170.975 38.1526 170.975 38.1526L171.125 46.9798C171.125 47.054 171.274 49.576 171.647 50.3178ZM167.619 45.5704C168.066 44.6061 168.066 44.2352 168.066 41.7132C166.947 41.8615 165.381 42.0841 163.516 42.5291C160.308 43.1967 159.786 44.4577 159.786 45.6446C159.786 47.054 160.905 48.1666 163.068 48.1666C165.082 48.1666 166.798 47.3507 167.619 45.5704ZM71.1652 50.3178H68.1813C68.1813 50.3178 67.8829 49.1309 67.8083 47.7957C66.9132 48.6859 65.272 50.5403 61.9898 50.5403C58.6329 50.5403 56.0966 48.5375 56.0966 45.6446C56.0966 44.7545 56.3204 43.7901 56.8426 43.0484C57.8124 41.5648 59.6773 40.4522 64.8245 40.0071L67.5845 39.7846V39.3395C67.5845 37.5592 67.5845 34.5921 63.7055 34.5921C61.2438 34.5921 60.4232 35.779 60.1995 36.8174L57.514 35.7048C57.5886 35.6306 57.5886 35.4823 57.6632 35.4081C58.7075 33.5536 60.7216 32.3668 63.6309 32.3668C65.1974 32.3668 67.2861 32.7377 68.6289 33.8503C70.5684 35.3339 70.4938 38.1526 70.4938 38.1526L70.5684 46.9798C70.643 47.054 70.7922 49.576 71.1652 50.3178ZM67.2115 45.5704C67.6591 44.6061 67.6591 44.2352 67.6591 41.7132C66.5402 41.8615 64.9736 42.0841 63.1087 42.5291C59.9011 43.1967 59.3789 44.4577 59.3789 45.6446C59.3789 47.054 60.4978 48.1666 62.6612 48.1666C64.6007 48.1666 66.3164 47.3507 67.2115 45.5704Z" fill="#A9AFBA"/>
<path d="M190.52 35.8532C190.072 36.1499 189.625 36.4466 189.177 36.7433C183.956 33.8504 172.766 28.287 171.796 27.842C170.752 27.3227 168.962 26.581 169.185 24.8749C169.484 22.5012 173.736 17.2346 175.526 15.0092C185.224 3.28918 189.55 -0.345523 192.385 0.025365C195.443 0.396253 197.159 3.58589 197.383 18.2731C195.667 17.7538 193.802 17.2346 191.788 16.7153C191.639 14.5642 191.191 11.3745 191.042 10.2619C190.893 9.00086 190.595 8.55579 190.147 8.48162C189.55 8.40744 188.133 9.74263 186.865 11.0778C186.268 11.6713 184.627 13.3032 182.837 15.1576C181.345 15.0834 180.3 15.3801 179.778 16.1219C179.331 16.7153 179.256 17.5313 179.48 18.5698C178.51 19.5341 177.689 20.35 177.093 20.9435C175.079 22.9463 172.915 24.5782 172.841 25.3941C172.766 26.0617 173.736 26.7293 175.228 27.6194C178.659 29.4739 187.387 34.2213 190.52 35.8532ZM204.097 21.166C200.665 19.9791 192.236 16.8637 183.359 15.6768C180.3 15.306 179.107 16.3444 180.3 19.2374C181.568 22.1303 184.776 26.8777 188.133 30.5124C191.49 34.0729 195.145 35.0372 196.339 29.5481C196.413 29.3255 196.413 29.1772 196.488 28.9546C196.786 27.5453 197.01 26.1359 197.085 24.949C195.593 24.2815 193.877 23.5397 192.236 22.8721C192.31 24.1331 192.46 26.3584 192.534 27.9903C192.534 28.2129 192.534 28.4354 192.534 28.5838C192.609 31.3283 191.714 31.3283 190.147 30.2157C188.357 28.9546 182.762 21.6111 182.091 18.3472C182.091 18.1247 182.165 18.1247 182.24 18.1989C182.314 18.1989 182.314 18.1989 182.389 18.2731C183.657 18.7923 187.835 20.4242 192.087 22.2045C193.802 22.9463 195.518 23.6139 197.01 24.3556C198.502 25.0232 199.845 25.6908 200.889 26.2101C202.754 27.1744 203.425 27.842 202.679 28.6579C198.875 32.5152 185.447 38.0043 180.822 44.8287C180.822 44.8287 180.822 44.8287 180.748 44.9028C180.673 44.977 180.673 45.0512 180.599 45.1254C180.599 45.1254 180.599 45.1995 180.524 45.1995C180.3 45.6446 180.002 46.3122 179.853 47.2023C179.629 48.6859 180.449 50.0211 182.613 50.6145C183.135 50.7629 183.732 50.9112 184.403 50.9854C184.552 50.9854 184.627 50.9854 184.776 50.9854C188.879 51.2079 199.621 48.8342 202.828 47.4249C206.185 45.9413 205.216 44.4578 204.246 43.716C203.5 43.1226 199.77 41.0456 197.98 40.0813C197.458 40.378 197.085 40.6005 196.637 40.9714C199.695 42.8259 200.964 43.7902 201.71 44.3094C202.008 44.5319 201.859 44.7545 201.411 44.8287C201.337 44.8287 201.187 44.8287 201.113 44.8287C198.204 45.0512 192.609 45.4221 189.998 45.5704C189.625 45.5704 189.177 45.6446 188.954 45.6446C189.625 45.0512 190.296 44.5319 190.669 44.2352C196.264 40.3038 205.589 34.8147 208.349 32.441C210.437 30.5865 215.958 25.2458 204.097 21.166Z" fill="#A9AFBA"/>
</svg>
