<svg width="134" height="80" viewBox="0 0 134 80" fill="none" xmlns="http://www.w3.org/2000/svg">
<path d="M37.7006 29.0545C37.7006 30.7008 37.8785 32.0356 38.19 33.0145C38.546 33.9933 38.9909 35.0612 39.6138 36.218C39.8363 36.574 39.9253 36.9299 39.9253 37.2414C39.9253 37.6863 39.6583 38.1313 39.0799 38.5762L36.2768 40.4449C35.8763 40.7119 35.4759 40.8454 35.1199 40.8454C34.675 40.8454 34.23 40.6229 33.7851 40.2225C33.1622 39.5551 32.6283 38.8432 32.1833 38.1313C31.7384 37.3749 31.2935 36.5295 30.804 35.5061C27.3335 39.5996 22.9731 41.6463 17.7228 41.6463C13.9853 41.6463 11.0042 40.5784 8.82404 38.4427C6.64384 36.307 5.53149 33.4594 5.53149 29.8999C5.53149 26.1179 6.86631 23.0478 9.58044 20.7342C12.2946 18.4205 15.8986 17.2636 20.4814 17.2636C21.9942 17.2636 23.5515 17.3971 25.1978 17.6196C26.8441 17.842 28.5348 18.198 30.3146 18.5984V15.3504C30.3146 11.9689 29.6027 9.61068 28.2234 8.23137C26.7996 6.85206 24.3969 6.18465 20.9709 6.18465C19.4136 6.18465 17.8118 6.36263 16.1655 6.76307C14.5193 7.16352 12.9175 7.65295 11.3602 8.27586C10.6483 8.58732 10.1144 8.7653 9.80291 8.85428C9.49145 8.94327 9.26898 8.98776 9.091 8.98776C8.46809 8.98776 8.15663 8.54283 8.15663 7.60845V5.42825C8.15663 4.71635 8.24562 4.18243 8.46809 3.87097C8.69056 3.55951 9.091 3.24805 9.71392 2.9366C11.2712 2.13571 13.1399 1.4683 15.3201 0.934372C17.5003 0.355951 19.814 0.0889877 22.2612 0.0889877C27.556 0.0889877 31.4269 1.29032 33.9186 3.69299C36.3658 6.09566 37.6116 9.74416 37.6116 14.6385V29.0545H37.7006ZM19.6361 35.8176C21.1044 35.8176 22.6171 35.5506 24.2189 35.0167C25.8207 34.4828 27.2445 33.5039 28.4458 32.1691C29.1577 31.3237 29.6917 30.3893 29.9586 29.3215C30.2256 28.2536 30.4036 26.9633 30.4036 25.4505V23.5818C29.1133 23.2703 27.7339 23.0033 26.3101 22.8254C24.8863 22.6474 23.507 22.5584 22.1277 22.5584C19.1466 22.5584 16.9664 23.1368 15.4981 24.3382C14.0298 25.5395 13.3179 27.2303 13.3179 29.455C13.3179 31.5462 13.8518 33.1035 14.9642 34.1713C16.0321 35.2837 17.5893 35.8176 19.6361 35.8176ZM55.3646 40.6229C54.5638 40.6229 54.0298 40.4894 53.6739 40.178C53.3179 39.911 53.0065 39.2881 52.7395 38.4427L42.2834 4.04894C42.0165 3.15907 41.883 2.58065 41.883 2.26919C41.883 1.55729 42.2389 1.15684 42.9508 1.15684H47.3113C48.1566 1.15684 48.7351 1.29032 49.0465 1.60178C49.4025 1.86874 49.6694 2.49166 49.9364 3.33704L57.4114 32.792L64.3524 3.33704C64.5749 2.44716 64.8418 1.86874 65.1978 1.60178C65.5537 1.33482 66.1767 1.15684 66.9775 1.15684H70.5371C71.3824 1.15684 71.9609 1.29032 72.3168 1.60178C72.6728 1.86874 72.9842 2.49166 73.1622 3.33704L80.1922 33.1479L87.8897 3.33704C88.1566 2.44716 88.4681 1.86874 88.7795 1.60178C89.1355 1.33482 89.7139 1.15684 90.5148 1.15684H94.6527C95.3646 1.15684 95.7651 1.51279 95.7651 2.26919C95.7651 2.49166 95.7206 2.71413 95.6761 2.98109C95.6316 3.24805 95.5426 3.604 95.3646 4.09344L84.6416 38.4872C84.3747 39.3771 84.0632 39.9555 83.7072 40.2225C83.3513 40.4894 82.7729 40.6674 82.0165 40.6674H78.19C77.3446 40.6674 76.7662 40.5339 76.4102 40.2225C76.0543 39.911 75.7428 39.3326 75.5649 38.4427L68.6683 9.74416L61.8163 38.3982C61.5938 39.2881 61.3268 39.8665 60.9709 40.178C60.6149 40.4894 59.992 40.6229 59.1911 40.6229H55.3646ZM112.539 41.8243C110.226 41.8243 107.912 41.5573 105.687 41.0234C103.463 40.4894 101.727 39.911 100.57 39.2436C99.8585 38.8432 99.3691 38.3982 99.1911 37.9978C99.0131 37.5973 98.9242 37.1524 98.9242 36.7519V34.4828C98.9242 33.5484 99.2801 33.1035 99.9475 33.1035C100.214 33.1035 100.481 33.1479 100.748 33.2369C101.015 33.3259 101.416 33.5039 101.861 33.6819C103.374 34.3493 105.02 34.8832 106.755 35.2392C108.535 35.5951 110.27 35.7731 112.05 35.7731C114.853 35.7731 117.033 35.2837 118.546 34.3048C120.059 33.3259 120.86 31.9021 120.86 30.0779C120.86 28.832 120.459 27.8087 119.658 26.9633C118.857 26.1179 117.345 25.3615 115.164 24.6496L108.713 22.6474C105.465 21.624 103.062 20.1112 101.594 18.109C100.125 16.1513 99.3691 13.9711 99.3691 11.6574C99.3691 9.78865 99.7695 8.14238 100.57 6.71858C101.371 5.29477 102.439 4.04894 103.774 3.07008C105.109 2.04672 106.622 1.29032 108.401 0.756396C110.181 0.222469 112.05 0 114.008 0C114.986 0 116.01 0.0444939 116.989 0.177976C118.012 0.311457 118.946 0.489433 119.881 0.667408C120.771 0.889878 121.616 1.11235 122.417 1.37931C123.218 1.64627 123.841 1.91324 124.286 2.1802C124.909 2.53615 125.354 2.8921 125.62 3.29255C125.887 3.6485 126.021 4.13793 126.021 4.76085V6.85206C126.021 7.78643 125.665 8.27586 124.998 8.27586C124.642 8.27586 124.063 8.09789 123.307 7.74194C120.771 6.5851 117.923 6.00667 114.764 6.00667C112.228 6.00667 110.226 6.40712 108.846 7.2525C107.467 8.09789 106.755 9.38821 106.755 11.2125C106.755 12.4583 107.2 13.5261 108.09 14.3715C108.98 15.2169 110.626 16.0623 112.984 16.8187L119.302 18.8209C122.506 19.8443 124.82 21.2681 126.199 23.0923C127.578 24.9166 128.246 27.0078 128.246 29.3215C128.246 31.2347 127.845 32.97 127.089 34.4828C126.288 35.9956 125.22 37.3304 123.841 38.3982C122.461 39.5106 120.815 40.3115 118.902 40.8899C116.9 41.5128 114.808 41.8243 112.539 41.8243Z" fill="#A9AFBA"/>
<path fill-rule="evenodd" clip-rule="evenodd" d="M120.949 63.4484C106.31 74.2604 85.0421 80.0001 66.7551 80.0001C41.1266 80.0001 18.0343 70.5229 0.592666 54.772C-0.786644 53.5262 0.459184 51.8355 2.10546 52.8143C20.9709 63.7598 44.2412 70.3894 68.3124 70.3894C84.5526 70.3894 102.395 67.0079 118.813 60.0668C121.26 58.9545 123.351 61.6686 120.949 63.4484Z" fill="#A9AFBA"/>
<path fill-rule="evenodd" clip-rule="evenodd" d="M127.044 56.5073C125.176 54.1046 114.675 55.3505 109.914 55.9289C108.49 56.1069 108.268 54.861 109.558 53.9267C117.923 48.0535 131.672 49.7442 133.273 51.702C134.875 53.7042 132.829 67.4528 124.998 74.0379C123.796 75.0613 122.639 74.5273 123.173 73.1925C124.953 68.7876 128.913 58.8655 127.044 56.5073Z" fill="#A9AFBA"/>
</svg>
