<svg width="130" height="25" viewBox="0 0 130 25" fill="none" xmlns="http://www.w3.org/2000/svg">
<path d="M123.025 20.8465C123.025 18.9456 124.568 17.4033 126.468 17.4033C128.369 17.4033 129.911 18.9456 129.911 20.8465C129.911 22.7475 128.369 24.2887 126.468 24.2887C124.568 24.2887 123.025 22.7475 123.025 20.8465Z" fill="#A9AFBA"/>
<path d="M13.215 11.7279C13.215 9.54697 12.7936 7.92898 11.9507 6.87489C11.1068 5.8218 9.8285 5.29575 8.10992 5.29575H6.28175V18.6323H7.68046C9.58937 18.6323 10.9882 18.0663 11.8789 16.9306C12.7686 15.7968 13.215 14.0622 13.215 11.7279ZM19.7347 11.5007C19.7347 15.474 18.6667 18.5356 16.5306 20.6846C14.3945 22.8346 11.3918 23.9096 7.52109 23.9096H0V0.101074H8.0461C11.7782 0.101074 14.6595 1.07844 16.69 3.03218C18.7195 4.98692 19.7347 7.80844 19.7347 11.5007Z" fill="#A9AFBA"/>
<path d="M40.5681 23.9092H46.5529V0.000976562H40.5681V23.9092Z" fill="#A9AFBA"/>
<path d="M54.9602 14.9914C54.9602 16.5158 55.1595 17.6784 55.557 18.4775C55.9556 19.2775 56.623 19.677 57.5615 19.677C58.4901 19.677 59.1466 19.2775 59.5292 18.4775C59.9118 17.6784 60.1021 16.5158 60.1021 14.9914C60.1021 13.4751 59.9088 12.3313 59.5212 11.5592C59.1327 10.785 58.4702 10.3975 57.5308 10.3975C56.6122 10.3975 55.9556 10.7831 55.557 11.5502C55.1595 12.3184 54.9602 13.4651 54.9602 14.9914ZM66.1935 14.9914C66.1935 17.8957 65.4323 20.1612 63.9059 21.7852C62.3806 23.4102 60.2456 24.2231 57.5008 24.2231C54.8686 24.2231 52.7733 23.3922 51.2181 21.7304C49.6609 20.0685 48.8828 17.8229 48.8828 14.9914C48.8828 12.0962 49.6451 9.84652 51.1714 8.24248C52.6976 6.63844 54.8377 5.83643 57.5934 5.83643C59.2961 5.83643 60.8026 6.20806 62.1077 6.95031C63.4138 7.69255 64.4221 8.7556 65.1305 10.1405C65.8398 11.5233 66.1935 13.1413 66.1935 14.9914Z" fill="#A9AFBA"/>
<path d="M68.5703 23.9092H74.5561V14.7592V6.15015H68.5703V23.9092Z" fill="#A9AFBA"/>
<path d="M68.5701 4.00213H74.5558V0H68.5701V4.00213Z" fill="#A9AFBA"/>
<path d="M86.6827 19.3795C87.4908 19.3795 88.4531 19.1743 89.5759 18.7668V23.2352C88.7689 23.5899 88.0018 23.844 87.2725 23.9944C86.5432 24.1468 85.6873 24.2225 84.708 24.2225C82.6984 24.2225 81.2498 23.7174 80.3601 22.7092C79.4744 21.7009 79.0301 20.1527 79.0301 18.0634V10.7426H76.934V6.15167H79.0301V1.61651L85.0618 0.567383V6.15167H88.8806V10.7426H85.0618V17.6549C85.0618 18.8047 85.6027 19.3795 86.6827 19.3795Z" fill="#A9AFBA"/>
<path d="M100.536 19.3795C101.344 19.3795 102.307 19.1743 103.429 18.7668V23.2352C102.623 23.5899 101.855 23.844 101.126 23.9944C100.396 24.1468 99.5428 24.2225 98.5614 24.2225C96.5519 24.2225 95.1034 23.7174 94.2156 22.7092C93.328 21.7009 92.8837 20.1527 92.8837 18.0634V10.7426H90.7864V6.15167H92.8837V1.54778L98.9142 0.567383V6.15167H102.735V10.7426H98.9142V17.6549C98.9142 18.8047 99.4552 19.3795 100.536 19.3795Z" fill="#A9AFBA"/>
<path d="M110.982 12.8279C111.064 11.8556 111.342 11.1432 111.816 10.6879C112.292 10.2336 112.88 10.0064 113.583 10.0064C114.351 10.0064 114.96 10.2615 115.413 10.7756C115.868 11.2867 116.105 11.9711 116.124 12.8279H110.982ZM119.423 7.93017C118 6.53535 115.981 5.83691 113.37 5.83691C110.625 5.83691 108.513 6.63893 107.033 8.24297C105.553 9.84701 104.813 12.1485 104.813 15.1474C104.813 18.0516 105.613 20.2912 107.209 21.8634C108.806 23.4355 111.049 24.2226 113.937 24.2226C115.324 24.2226 116.518 24.128 117.518 23.9397C118.512 23.7534 119.475 23.4166 120.408 22.9304L119.488 18.9283C118.81 19.2053 118.164 19.4185 117.555 19.559C116.674 19.7632 115.708 19.8658 114.655 19.8658C113.502 19.8658 112.591 19.5838 111.924 19.0199C111.256 18.455 110.9 17.676 110.86 16.6836H121.558V13.9568C121.558 11.3335 120.846 9.32399 119.423 7.93017Z" fill="#A9AFBA"/>
<path d="M27.6779 12.8279C27.7596 11.8556 28.0376 11.1432 28.5117 10.6879C28.987 10.2336 29.576 10.0064 30.2804 10.0064C31.0455 10.0064 31.6552 10.2615 32.1085 10.7756C32.5638 11.2867 32.8 11.9711 32.8209 12.8279H27.6779ZM36.1196 7.93017C34.696 6.53535 32.6784 5.83691 30.0661 5.83691C27.3203 5.83691 25.2091 6.63893 23.7295 8.24297C22.25 9.84701 21.5089 12.1485 21.5089 15.1474C21.5089 18.0516 22.3079 20.2912 23.906 21.8634C25.5021 23.4355 27.7447 24.2226 30.633 24.2226C32.0198 24.2226 33.2133 24.128 34.2136 23.9397C35.2079 23.7534 36.1705 23.4166 37.105 22.9304L36.1844 18.9283C35.5059 19.2053 34.8603 19.4185 34.2516 19.559C33.3688 19.7632 32.4034 19.8658 31.3512 19.8658C30.1985 19.8658 29.2871 19.5838 28.6196 19.0199C27.951 18.455 27.5963 17.676 27.5555 16.6836H38.2537V13.9568C38.2537 11.3335 37.5423 9.32399 36.1196 7.93017Z" fill="#A9AFBA"/>
</svg>
