<svg width="149" height="75" viewBox="0 0 149 75" fill="none" xmlns="http://www.w3.org/2000/svg">
<g clip-path="url(#clip0_7_54)">
<path d="M148.981 32.2041H94.7981V23.0044H148.981V32.2041Z" fill="#A9AFBA"/>
<path d="M141.943 32.2041H94.7981V9.19482H141.943V32.2041Z" fill="#A9AFBA"/>
<path d="M122.465 32.2041H94.7981V0H122.465V32.2041Z" fill="#A9AFBA"/>
<path d="M127.908 32.2042H94.7981V3.59351H127.908V32.2042Z" fill="#A9AFBA"/>
<path d="M94.7905 3.59888V32.2012H122.462V3.59888H94.7905Z" fill="#A9AFBA"/>
<path d="M67.0543 32.2041H94.7982V36.8044H67.0543V32.2041Z" fill="#A9AFBA"/>
<path d="M94.7905 9.1897V32.201H127.924V9.1897H94.7905Z" fill="#A9AFBA"/>
<path d="M94.7905 9.1897V32.201H122.462V9.1897H94.7905Z" fill="#A9AFBA"/>
<path d="M112.1 32.204H94.7981V18.3936H112.1V32.204Z" fill="#A9AFBA"/>
<path d="M94.7905 23.011V32.2012H141.959V23.011H94.7905Z" fill="#A9AFBA"/>
<path d="M94.7905 23.011V32.2012H127.924V23.011H94.7905Z" fill="#A9AFBA"/>
<path d="M94.7905 23.011V32.2012H122.462V23.011H94.7905Z" fill="#A9AFBA"/>
<path d="M94.7905 23.011V32.2012H112.117V23.011H94.7905Z" fill="#A9AFBA"/>
<path d="M100.831 49.531C96.1102 50.0877 93.5926 52.4536 93.5926 56.5593C93.5926 60.7346 96.9493 63.5181 101.88 63.5181C104.293 63.5181 106.39 62.9614 110.796 61.5V64.91C105.446 66.5799 102.299 66.9975 98.1033 66.9975C93.3827 66.9975 90.0255 66.2321 87.4031 64.3532C84.6756 62.5438 83.2069 60.1779 83.2069 57.4638C83.2069 51.549 89.9207 47.4433 99.6766 47.4433C106.076 47.4433 110.587 49.4614 110.587 52.3145C110.587 54.1934 108.488 55.5156 105.446 55.5156C103.873 55.5156 102.614 55.1677 100.83 54.5413M77.2276 57.4639C81.5286 53.915 83.1022 52.4536 83.1022 50.7139C83.1022 48.9742 81.0041 47.4431 78.0669 47.4431C76.3884 47.4431 74.815 48.0695 74.0806 48.6262V55.9329L67.052 62.1958V48H60.3383L49.2185 60.178V48H45.4418L35.2662 49.5311V51.2707L40.8261 51.6185V66.7193H47.8546L58.5546 55.0285V66.7193H66.4224M13.9712 64.3532H15.5447C21.2093 64.3532 24.3564 62.0568 24.3564 57.4638C24.3564 53.6366 21.839 51.549 17.1181 51.549C16.4887 51.549 15.5446 51.6185 13.9711 51.8273V64.3531L13.9712 64.3532ZM13.9712 72.5646L18.5868 73.2604V75.0001H0.438791V73.2604L4.63475 72.5646V51.5489H0.019165V49.8092L11.0339 47.5824H13.9714V50.0877C19.1115 48 20.8948 47.6521 23.6222 47.6521C29.7067 47.6521 34.3223 51.4098 34.3223 56.6291C34.3223 62.6136 28.133 66.7193 18.6917 66.7193C17.6427 66.7193 15.8593 66.6497 13.9712 66.5801" fill="#A9AFBA"/>
</g>
<defs>
<clipPath id="clip0_7_54">
<rect width="149" height="75" fill="white"/>
</clipPath>
</defs>
</svg>
