<svg width="120" height="84" viewBox="0 0 120 84" fill="none" xmlns="http://www.w3.org/2000/svg">
<mask id="mask0_7_12" style="mask-type:luminance" maskUnits="userSpaceOnUse" x="0" y="0" width="120" height="84">
<path d="M0 0H120V83.8235H0V0Z" fill="white"/>
</mask>
<g mask="url(#mask0_7_12)">
<path fill-rule="evenodd" clip-rule="evenodd" d="M49.8264 9.17648C53.7 5.14413 59.0911 2.64707 65.047 2.64707C72.9882 2.64707 79.8706 7.05883 83.5764 13.6324C86.866 12.1618 90.429 11.4026 94.0323 11.4044C108.326 11.4044 119.929 23.0956 119.929 37.5221C119.929 51.9485 108.326 63.6397 94.0323 63.6397C92.2853 63.6397 90.5823 63.4641 88.9147 63.1324C85.672 68.9118 79.4735 72.8382 72.4147 72.8382C69.5408 72.8439 66.7037 72.192 64.1206 70.9324C60.8338 78.6529 53.1794 84.0794 44.2676 84.0794C34.9588 84.0794 27.0617 78.2118 24.0176 69.9618C22.6627 70.2477 21.2817 70.3914 19.897 70.3906C8.8235 70.3906 -0.132385 61.3024 -0.132385 50.1406C-0.132385 42.6406 3.89997 36.1112 9.88232 32.5818C8.61316 29.6581 7.95988 26.5043 7.9632 23.3171C7.9632 10.4347 18.4191 0.0229492 31.3014 0.0229492C38.8456 0.0229492 45.5956 3.61854 49.8309 9.19942" fill="#A9AFBA"/>
</g>
<path fill-rule="evenodd" clip-rule="evenodd" d="M17.3559 43.5882C17.2805 43.7849 17.3828 43.826 17.4071 43.8608C17.6325 44.0241 17.8615 44.1423 18.0909 44.2751C19.3174 44.9236 20.4733 45.1133 21.6821 45.1133C24.1438 45.1133 25.6747 43.803 25.6747 41.6942V41.6527C25.6747 39.7027 23.9453 38.9924 22.3306 38.4851L22.1193 38.4167C20.8972 38.0205 19.8428 37.6755 19.8428 36.8726V36.8316C19.8428 36.1433 20.4605 35.636 21.4134 35.636C22.4722 35.636 23.734 35.9885 24.5413 36.4345C24.5413 36.4345 24.7805 36.5889 24.8674 36.3582C24.9146 36.2333 25.3262 35.1317 25.3703 35.0082C25.4171 34.8789 25.335 34.7814 25.2508 34.7311C24.3243 34.1664 23.0449 33.7826 21.7213 33.7826L21.4756 33.7835C19.2212 33.7835 17.6462 35.1467 17.6462 37.0967V37.1386C17.6462 39.1945 19.3844 39.8651 21.008 40.3283L21.2691 40.4095C22.4515 40.773 23.475 41.0889 23.475 41.9183V41.9598C23.475 42.723 22.8088 43.2921 21.7412 43.2921C21.326 43.2921 20.003 43.2851 18.5691 42.3789C18.3958 42.2779 18.2969 42.2051 18.1633 42.1235C18.0927 42.0807 17.9162 42.0035 17.8394 42.2346L17.3541 43.5846M53.3983 43.5846C53.3228 43.7814 53.4252 43.8224 53.4503 43.8573C53.6749 44.0205 53.9047 44.1388 54.1341 44.2716C55.3606 44.9201 56.5165 45.1098 57.7253 45.1098C60.1871 45.1098 61.718 43.7995 61.718 41.6907V41.6492C61.718 39.6992 59.993 38.9889 58.3738 38.4816L58.1625 38.4132C56.9405 38.017 55.886 37.672 55.886 36.8691V36.828C55.886 36.1398 56.5037 35.6324 57.4566 35.6324C58.5155 35.6324 59.7728 35.9849 60.5846 36.431C60.5846 36.431 60.8237 36.5854 60.911 36.3546C60.9578 36.2298 61.3699 35.1282 61.4096 35.0046C61.4568 34.8754 61.3743 34.7779 61.2905 34.7276C60.364 34.1629 59.0846 33.7791 57.761 33.7791L57.5149 33.7799C55.2605 33.7799 53.6855 35.1432 53.6855 37.0932V37.1351C53.6855 39.191 55.4237 39.8616 57.0472 40.3248L57.308 40.406C58.4947 40.7695 59.5138 41.0854 59.5138 41.9148V41.9563C59.5138 42.7195 58.8477 43.2886 57.78 43.2886C57.364 43.2886 56.0374 43.2816 54.608 42.3754C54.4346 42.2743 54.3331 42.2046 54.2016 42.1199C54.1571 42.0917 53.9493 42.0105 53.8782 42.2311L53.393 43.5811M78.0106 39.4517C78.0106 40.6429 77.7883 41.5826 77.3533 42.2488C76.9191 42.9061 76.2635 43.2282 75.3503 43.2282C74.4371 43.2282 73.7841 42.9088 73.3562 42.2532C72.9252 41.5914 72.7077 40.6473 72.7077 39.4561C72.7077 38.2649 72.9265 37.3296 73.3562 36.6723C73.7832 36.0193 74.4327 35.7061 75.3503 35.7061C76.268 35.7061 76.9209 36.0224 77.3533 36.6723C77.7909 37.3296 78.0106 38.2649 78.0106 39.4561M80.0665 37.2458C79.864 36.562 79.5503 35.962 79.1312 35.4591C78.7116 34.9561 78.1827 34.5502 77.5518 34.2591C76.9253 33.9657 76.1841 33.8179 75.3459 33.8179C74.5077 33.8179 73.7709 33.9666 73.14 34.2591C72.5135 34.552 71.9797 34.9561 71.5606 35.4591C71.1424 35.962 70.8282 36.562 70.6253 37.2458C70.4246 37.9252 70.3227 38.6664 70.3227 39.4561C70.3227 40.2458 70.4246 40.987 70.6253 41.6664C70.8269 42.3502 71.1415 42.9502 71.5606 43.4532C71.9802 43.9561 72.5135 44.3576 73.14 44.6443C73.7709 44.9302 74.5121 45.0758 75.3459 45.0758C76.1797 45.0758 76.9209 44.9302 77.5474 44.6443C78.1738 44.3585 78.7077 43.9561 79.1268 43.4532C79.5455 42.9502 79.8591 42.3502 80.0621 41.6664C80.2624 40.987 80.3643 40.2458 80.3643 39.4561C80.3643 38.6708 80.2624 37.9252 80.0621 37.2458M96.9591 42.8929C96.8916 42.693 96.6966 42.7685 96.6966 42.7685C96.398 42.8827 96.079 42.9886 95.7393 43.0416C95.3969 43.0954 95.0158 43.1223 94.6143 43.1223C93.6216 43.1223 92.8275 42.8263 92.2628 42.2399C91.6937 41.6532 91.376 40.7091 91.3805 39.4296C91.3835 38.2649 91.665 37.3914 92.1702 36.7208C92.6687 36.0591 93.4363 35.7149 94.451 35.7149C95.2981 35.7149 95.9466 35.8133 96.626 36.026C96.626 36.026 96.7871 36.0961 96.8643 35.8839C97.0447 35.3854 97.178 35.028 97.3716 34.481C97.4263 34.3243 97.2922 34.2582 97.2433 34.2392C96.9768 34.1351 96.3477 33.9643 95.8712 33.8924C95.4256 33.8245 94.9094 33.7892 94.3271 33.7892C93.4624 33.7892 92.6947 33.937 92.0374 34.2299C91.38 34.5224 90.8241 34.927 90.383 35.4299C89.9418 35.9329 89.6065 36.5329 89.3815 37.2167C89.1587 37.8961 89.0462 38.6417 89.0462 39.4314C89.0462 41.1343 89.505 42.5152 90.4138 43.5255C91.3227 44.5402 92.6903 45.052 94.4727 45.052C95.5271 45.052 96.608 44.8389 97.3844 44.5314C97.3844 44.5314 97.5327 44.4599 97.4683 44.287L96.9609 42.8929M100.556 38.3046C100.655 37.6429 100.836 37.0914 101.121 36.6635C101.548 36.0105 102.198 35.6532 103.111 35.6532C104.024 35.6532 104.629 36.0123 105.061 36.6635C105.348 37.0936 105.473 37.6649 105.52 38.3046L100.534 38.3038L100.556 38.3046ZM107.483 36.8488C107.308 36.1914 106.874 35.5252 106.592 35.2208C106.142 34.7399 105.705 34.4002 105.268 34.2149C104.638 33.9468 103.959 33.8092 103.274 33.8104C102.405 33.8104 101.615 33.9573 100.976 34.256C100.336 34.5568 99.7977 34.9663 99.3741 35.478C98.951 35.9898 98.633 36.5942 98.43 37.2868C98.2271 37.9707 98.1247 38.7207 98.1247 39.506C98.1247 40.3089 98.231 41.0545 98.4402 41.7295C98.6515 42.4089 98.9916 43.0045 99.4505 43.4986C99.9093 43.9971 100.496 44.3854 101.202 44.6589C101.903 44.9302 102.755 45.071 103.73 45.0679C105.742 45.0613 106.8 44.6135 107.233 44.3708C107.31 44.3276 107.383 44.253 107.292 44.0382L106.838 42.7632C106.768 42.573 106.575 42.6418 106.575 42.6418C106.077 42.828 105.371 43.1624 103.717 43.158C102.636 43.1563 101.837 42.8373 101.334 42.3374C100.823 41.8257 100.567 41.0801 100.527 40.0213L107.498 40.0266C107.498 40.0266 107.681 40.0248 107.7 39.8457C107.708 39.7716 107.939 38.4163 107.492 36.8501L107.483 36.8488ZM44.8359 38.3046C44.9343 37.6429 45.116 37.0914 45.4006 36.6635C45.8277 36.0105 46.4771 35.6532 47.3903 35.6532C48.3035 35.6532 48.908 36.0123 49.3403 36.6635C49.6266 37.0936 49.7519 37.6649 49.7991 38.3046L44.8138 38.3038L44.8359 38.3046ZM51.7624 36.8488C51.5877 36.1914 51.1535 35.5252 50.8712 35.2208C50.4212 34.7399 49.9844 34.4002 49.5477 34.2149C48.9171 33.9468 48.2387 33.8092 47.5535 33.8104C46.6844 33.8104 45.8947 33.9573 45.255 34.256C44.6153 34.5568 44.0771 34.9663 43.6535 35.478C43.2313 35.9898 42.9124 36.5942 42.7094 37.2868C42.5069 37.9707 42.405 38.7207 42.405 39.506C42.405 40.3089 42.5105 41.0545 42.7209 41.7295C42.9318 42.4089 43.2724 43.0045 43.7268 43.4986C44.1856 43.9971 44.7724 44.3854 45.4783 44.6589C46.1797 44.9302 47.0268 45.071 48.0062 45.0679C50.018 45.0613 51.0768 44.6135 51.5091 44.3708C51.5859 44.3276 51.6591 44.253 51.5678 44.0382L51.1134 42.7632C51.0432 42.573 50.8509 42.6418 50.8509 42.6418C50.3524 42.828 49.6465 43.1624 47.9921 43.158C46.9156 43.1563 46.1127 42.8373 45.6097 42.3374C45.098 41.8257 44.8421 41.0801 44.8024 40.0213L51.773 40.0266C51.773 40.0266 51.9565 40.0248 51.9755 39.8457C51.983 39.7716 52.2141 38.4163 51.7672 36.8501L51.7624 36.8488ZM29.7918 42.8488C29.5187 42.6308 29.4808 42.5774 29.3903 42.4358C29.2522 42.2227 29.1816 41.9196 29.1816 41.5314C29.1816 40.9226 29.3846 40.4814 29.8037 40.1858C29.7993 40.1867 30.4037 39.6652 31.8243 39.6829C32.4566 39.6942 33.0874 39.748 33.7125 39.8439V43.0071H33.7134C33.7134 43.0071 32.831 43.1973 31.834 43.2573C30.4178 43.3424 29.7913 42.8496 29.7958 42.851L29.7918 42.8488ZM32.5624 37.9517C32.28 37.931 31.9138 37.9208 31.4771 37.9208C30.8815 37.9208 30.3035 37.9949 29.7653 38.1405C29.2227 38.287 28.733 38.5138 28.3138 38.8155C27.8936 39.1153 27.5479 39.5078 27.3035 39.9626C27.0569 40.4214 26.9312 40.9596 26.9312 41.5685C26.9312 42.1861 27.0384 42.7199 27.2502 43.1567C27.4577 43.5899 27.7701 43.9645 28.159 44.2464C28.5459 44.5279 29.0237 44.7361 29.5752 44.8596C30.1222 44.9845 30.7399 45.0476 31.4193 45.0476C32.134 45.0476 32.8443 44.9876 33.5325 44.8716C34.1187 44.7705 34.7026 44.6569 35.284 44.531C35.516 44.4776 35.7737 44.4074 35.7737 44.4074C35.9458 44.3638 35.9325 44.1798 35.9325 44.1798L35.9285 37.8268C35.9285 36.4327 35.5562 35.396 34.8212 34.7563C34.0888 34.1166 33.0168 33.7945 31.6271 33.7945C31.1065 33.7945 30.2638 33.8651 29.7609 33.9661C29.7609 33.9661 28.2433 34.2608 27.6168 34.7514C27.6168 34.7514 27.4791 34.8361 27.5541 35.028L28.0483 36.3516C28.1096 36.5232 28.2768 36.4645 28.2768 36.4645C28.2768 36.4645 28.3293 36.4438 28.391 36.4071C29.7278 35.6792 31.4219 35.7013 31.4219 35.7013C32.1719 35.7013 32.7543 35.8535 33.1425 36.1513C33.5224 36.4429 33.716 36.8836 33.716 37.8101V38.1043C33.1205 38.0179 32.569 37.968 32.569 37.968L32.5624 37.9517ZM88.5918 34.3649C88.6018 34.3417 88.6071 34.3166 88.6072 34.2913C88.6074 34.266 88.6024 34.2408 88.5926 34.2175C88.5829 34.1941 88.5685 34.1729 88.5504 34.1552C88.5323 34.1375 88.5108 34.1236 88.4872 34.1143C88.3685 34.0693 87.7769 33.9445 87.3225 33.9163C86.449 33.8616 85.9637 34.0089 85.5269 34.2048C85.0955 34.3993 84.6181 34.7121 84.3534 35.0739L84.3525 34.2268C84.3525 34.1104 84.27 34.0164 84.1527 34.0164H82.3703C82.2547 34.0164 82.1709 34.1104 82.1709 34.2268V44.5945C82.171 44.6505 82.1933 44.7042 82.2329 44.7438C82.2725 44.7834 82.3262 44.8057 82.3822 44.8058H84.2087C84.2647 44.8057 84.3183 44.7834 84.3578 44.7438C84.3974 44.7041 84.4196 44.6505 84.4196 44.5945V39.3886C84.4196 38.6916 84.4963 37.9989 84.6494 37.5621C84.8003 37.1302 85.0055 36.7857 85.2583 36.5386C85.4994 36.3 85.7945 36.1229 86.1185 36.0224C86.4226 35.9352 86.7375 35.8909 87.0538 35.891C87.4178 35.891 87.8171 35.9845 87.8171 35.9845C87.9512 35.9995 88.0258 35.9174 88.0712 35.7966C88.1908 35.4785 88.53 34.526 88.5962 34.3363" fill="white"/>
<path fill-rule="evenodd" clip-rule="evenodd" d="M71.5328 29.58C71.3071 29.5118 71.0774 29.4573 70.845 29.4168C70.5325 29.3646 70.216 29.3401 69.8992 29.3436C68.6405 29.3436 67.6483 29.6992 66.9517 30.4015C66.2599 31.0986 65.7892 32.1605 65.5531 33.5577L65.468 34.0293H63.8881C63.8881 34.0293 63.6953 34.0214 63.6547 34.2318L63.3953 35.6789C63.3772 35.8174 63.4368 35.9039 63.6221 35.903H65.16L63.5996 44.6131C63.4774 45.3146 63.3375 45.8917 63.1827 46.3289C63.03 46.7603 62.8809 47.0837 62.6974 47.3184C62.5196 47.5456 62.3511 47.7128 62.0603 47.8103C61.8203 47.8911 61.5442 47.9281 61.2415 47.9281C61.073 47.9281 60.8489 47.8999 60.6834 47.8668C60.518 47.8342 60.4319 47.7971 60.308 47.7451C60.308 47.7451 60.1275 47.6762 60.0565 47.8571C59.9987 48.0049 59.5889 49.1321 59.5403 49.2715C59.4909 49.4092 59.5602 49.5177 59.6475 49.549C59.8522 49.6223 60.0044 49.669 60.2833 49.7348C60.6706 49.8261 60.9971 49.8318 61.3028 49.8318C61.9434 49.8318 62.5271 49.7418 63.0111 49.5671C63.4981 49.3911 63.9221 49.0845 64.2971 48.6693C64.7025 48.2215 64.9575 47.7526 65.2015 47.1128C65.4428 46.4789 65.6484 45.6918 65.813 44.7746L67.3809 35.903H69.6733C69.6733 35.903 69.8665 35.91 69.9067 35.7005L70.1661 34.2534C70.1842 34.1149 70.125 34.0284 69.9389 34.0293H67.714C67.725 33.979 67.8261 33.1964 68.0815 32.4596C68.1905 32.145 68.3956 31.8914 68.5694 31.7171C68.7317 31.5511 68.9317 31.4267 69.1522 31.3545C69.394 31.2797 69.6461 31.2434 69.8992 31.2468C70.1087 31.2468 70.3143 31.272 70.4709 31.3046C70.6867 31.3505 70.7705 31.3748 70.8269 31.3915C71.0537 31.4608 71.0842 31.3937 71.1287 31.2839L71.6608 29.8227C71.7155 29.6656 71.5822 29.5995 71.5328 29.58ZM40.4414 44.6317C40.4414 44.7481 40.3584 44.843 40.242 44.843H38.3965C38.2796 44.843 38.1967 44.7481 38.1967 44.6317V29.7781C38.1967 29.6621 38.2796 29.5681 38.3965 29.5681H40.242C40.3584 29.5681 40.4414 29.6621 40.4414 29.7781V44.6317Z" fill="white"/>
</svg>
